<?xml version="1.0" standalone="no"?>
<!DOCTYPE svg PUBLIC "-//W3C//DTD SVG 1.1//EN" "http://www.w3.org/Graphics/SVG/1.1/DTD/svg11.dtd" >
<svg>
<metadata>
Created by FontForge 20120731 at Sun Jun 30 09:38:04 2019
 By www
 
</metadata>
<defs>
<font id="CAMBRIA" horiz-adv-x="0" >
  <font-face 
    font-family="CAMBRIA"
    font-weight="400"
    font-stretch="normal"
    units-per-em="1000"
    panose-1="0 0 0 0 0 0 0 0 0 0"
    ascent="800"
    descent="-200"
    x-height="467"
    cap-height="721"
    bbox="-2 -249 975.027 750"
    underline-thickness="50"
    underline-position="-55"
    unicode-range="U+0020-F002"
  />
<missing-glyph 
 />
    <glyph glyph-name=".notdef" 
 />
    <glyph glyph-name="glyph1" 
 />
    <glyph glyph-name="space" horiz-adv-x="133" 
 />
    <glyph glyph-name="exclam" unicode=" " horiz-adv-x="133" 
 />
    <glyph glyph-name="exclam" unicode="&#xa0;" horiz-adv-x="133" 
 />
    <glyph glyph-name="quotedbl" unicode="!" horiz-adv-x="236" 
d="M199 23q-3 -1 -6 -2.5t-6 -2.5q-26 -12 -54 -17.5t-65 -5.5l-31 50l10 2l60 12l38 11l11 4l43 -51v0zM137 619v-33v-70l-4 -159l-4 -166l-2 -64v-14q-8 -1 -17 -1.5t-18 -0.5q-13 0 -26 0.5t-25 1.5v20l2 133v24v24q-2 68 -6 137.5t-12 146.5v15l112 6v0z" />
    <glyph glyph-name="numbersign" unicode="&#x22;" horiz-adv-x="258" 
d="M39 553l66 13v-271q-11 -2 -25.5 -3.5t-30.5 -3.5q-4 0 -8.5 -0.5t-9.5 -0.5v4l2 14q3 34 5.5 72t2.5 82l-2 66v28v0zM168 553l66 13v-271q-11 -2 -25.5 -3.5t-30.5 -3.5q-4 0 -8.5 -0.5t-9.5 -0.5v4l2 14q5 34 6.5 72t1.5 82v66l-2 28v0z" />
    <glyph glyph-name="dollar" unicode="#" horiz-adv-x="506" 
d="M211 318h31h31h22h19l6 30l6 29l14 70l2 20l76 15l-2 -7l-14 -59l-19 -84l-2 -12h14q9 1 16.5 1t15.5 1h3h4q10 0 20 0.5t23 1.5l-36 -64h-74l-17 -74h7l10 2l57 1h23l-33 -62h-78l-2 -6q-2 -7 -3.5 -14t-3.5 -14l-2 -12t-3 -12q-3 -17 -6.5 -37t-8.5 -47l-75 -16
q3 11 5.5 19.5t5.5 16.5q0 2 0.5 4.5t1.5 4.5q5 16 10 34.5t11 45.5l4 15l1 18h-21l-21 -2h-32h-31l-8 -35l-6 -31l-13 -75l-75 -15q3 11 5.5 19.5t5.5 16.5q0 2 0.5 4.5t1.5 4.5q5 16 10 34.5t11 45.5l2 13l4 18l-30 -2h-31h-27l31 63h23h24h23l18 74l-33 -2h-32h-25l31 60
h24h23h23l6 30l6 29l12 70l4 20l76 15l-2 -7l-14 -59l-19 -84l-4 -14v0zM197 260l-19 -76h33h33h22l19 2l18 74h-22h-11.5h-9.5h-12.5h-18.5h-32v0z" />
    <glyph glyph-name="percent" unicode="$" horiz-adv-x="758" 
d="M432 684q2 4 3.5 8t3.5 8v0.5t1 1.5q3 7 6 14.5t7 13.5h23.5h22.5q4 -1 7.5 -1h7.5q-2 -5 -4 -10.5t-4 -10.5q-2 -4 -3.5 -7.5t-3.5 -6.5q-2 -6 -4.5 -12.5t-4.5 -13.5q68 -32 122 -80.5t76 -110.5q-22 0 -43 -0.5t-42 -1.5h-4h-4q-19 -1 -38 -1.5t-39 -0.5q-3 7 -6.5 14
t-7.5 14q-10 17 -22 33.5t-25 28.5q-16 -31 -25.5 -67.5t-9.5 -74.5v-2.5v-2.5v-3v-3q77 -10 154 -32.5t153 -51.5q-21 -136 -102.5 -217.5t-175.5 -106.5q-14 -3 -27.5 -5.5t-27.5 -3.5q1 -5 1.5 -10.5t0.5 -10.5q2 -11 3 -22.5t1 -22.5q-8 1 -16.5 1.5t-17.5 0.5h-4.5
h-4.5q-7 1 -14 1t-13 1q0 7 -0.5 14.5t-0.5 15.5q-1 8 -2 15.5t-3 14.5q-103 22 -183.5 90t-105.5 159h63h62h20.5h20.5q2 -6 4 -11.5t5 -11.5q16 -41 43 -79t69 -58v6v6v5v6q0 31 1.5 60.5t2.5 58.5l2 38t2 37q-67 25 -137 37t-144 22q-8 1 -17 2.5t-18 2.5
q6 151 119 237.5t262 86.5h17t18 -1v0zM402 283l-2 -20t-2 -21q-3 -24 -5 -49t-2 -51q0 -16 1.5 -32.5t3.5 -33.5v0h1v0v0q11 0 23 5t25 15q24 19 46.5 50.5t33.5 65.5q2 6 3.5 11.5t2.5 10.5q-19 14 -41 22.5t-44 14.5q-5 1 -9 2t-9 3q-6 1 -13 3t-13 4v0zM404 600
q-13 15 -26 21.5t-26 7.5q-34 0 -62.5 -36t-48.5 -79q-11 -23 -18.5 -45t-11.5 -39q35 -3 70.5 -6t70.5 -6q7 50 20 94.5t32 87.5v0z" />
    <glyph glyph-name="ampersand" unicode="%" horiz-adv-x="848" 
d="M789 711q-21 -20 -41 -40.5t-39 -40.5q-77 -80 -146.5 -162.5t-137.5 -175.5q-49 -67 -98.5 -140.5t-101.5 -156.5q-22 1 -45 2l-46 2t-46 1.5t-45 1.5q33 34 66.5 68t67.5 69q127 129 244 268t186 304h91.5h90.5v0zM609 350h0.5h0.5h0.5h0.5q8 0 16 -1t16 -3
q50 -12 93.5 -55t52.5 -92q1 -5 1.5 -10t0.5 -10v-1.5v-1.5v-5.5t-1 -5.5q-5 -55 -52 -103t-102 -62q-9 -2 -17.5 -3.5t-16.5 -1.5q-12 0 -24.5 2t-25.5 6q-55 17 -100.5 63t-45.5 99v1.5v1.5q3 59 53.5 109.5t110.5 66.5q10 3 19.5 4.5t19.5 1.5v0zM604 301q-25 0 -41 -25
t-23 -55q-2 -12 -3.5 -23.5t-1.5 -21.5v-3.5v-4.5q0 -10 1 -21t3 -22q5 -31 20 -57t41 -27v0h1v0v0q25 -1 39 25.5t20 57.5q3 13 4.5 25t1.5 23q0 10 -1 22.5t-4 25.5q-5 30 -19 55t-38 26v0zM221 715h1.5h1.5q9 0 18 -1t18 -4q53 -14 99.5 -60t53.5 -99q0 -4 0.5 -8t0.5 -8
q0 -6 -0.5 -11.5t-1.5 -11.5q-10 -57 -59.5 -106.5t-106.5 -62.5q-7 -1 -13.5 -2t-13.5 -1h-0.5h-0.5h-0.5h-0.5q-6 0 -12 0.5t-13 2.5q-50 10 -94.5 54t-57.5 94q-3 9 -4 17.5t-1 16.5q0 5 0.5 10.5t1.5 10.5q10 57 58.5 106.5t104.5 60.5q5 1 10.5 1.5t10.5 0.5v0z
M225 664h-1.5h-1.5q-23 0 -37.5 -23.5t-21.5 -51.5q-2 -12 -3.5 -23t-1.5 -21q0 -12 1 -25.5t3 -28.5q5 -33 19 -61.5t42 -29.5h1.5h1.5q24 -1 39 26t21 59q3 13 4 26t1 24q0 10 -1.5 22t-3.5 24q-7 30 -22 55t-39 28v0z" />
    <glyph glyph-name="quotesingle" unicode="&#x26;" horiz-adv-x="768" 
d="M320 646h3.5h3.5h3.5h3.5q16 0 32.5 -2t33.5 -5q59 -13 112 -45.5t78 -75.5h-81h-79q-6 7 -12 15t-14 16q-16 19 -36 34.5t-42 15.5h-2h-2q-1 -1 -2 -1h-2q-7 -1 -14.5 -3t-15.5 -5q-33 -14 -61 -41.5t-28 -59.5v-2v-1v-2v-2q2 -30 27.5 -48.5t56.5 -34.5q15 -8 29 -16
t26 -18q-12 -8 -25.5 -16.5t-27.5 -16.5q-38 -24 -70.5 -53t-34.5 -70v-1.5v-0.5q0 -6 0.5 -11.5t1.5 -10.5q10 -43 46 -80.5t78 -50.5q5 -2 10 -3l10 -2q13 -2 35 15t46 45q20 24 39.5 54t32.5 61q6 13 10 26t7 25q-5 1 -10.5 1.5t-11.5 0.5q-13 0 -29 -2t-35 -5
q-1 6 -1.5 11.5t-1.5 11.5t-1.5 11.5t-1.5 11.5q40 14 77 20t72 6q29 0 57.5 -3t57.5 -9q19 -3 38 -7t38 -9q0 -6 -0.5 -12t-0.5 -13t-0.5 -13t-0.5 -12q-14 3 -30 6t-33 4q-6 0 -12.5 0.5t-12.5 0.5q-32 -133 -125 -197.5t-199 -75.5q-3 0 -6 -0.5t-5 -0.5h-6h-6
q-9 0 -18 0.5t-18 2.5q-83 12 -157 72t-100 137q0 34 36.5 56.5t79.5 42.5q22 10 42.5 20t36.5 22q-15 10 -32.5 19t-35.5 17q-39 19 -72 39.5t-38 54.5q20 60 80.5 97t129.5 53q20 5 40 8t39 4v0z" />
    <glyph glyph-name="parenleft" unicode="'" horiz-adv-x="500" 
 />
    <glyph glyph-name="parenright" unicode="(" horiz-adv-x="203" 
d="M172 563l-4 -16q-7 -22 -12.5 -43t-10.5 -43q-14 -64 -21 -129t-7 -133q0 -139 13.5 -233t39.5 -147q-28 3 -48.5 17.5t-37.5 45.5q-28 48 -42.5 127t-14.5 190q0 77 8.5 142t23.5 114q16 51 42.5 79.5t58.5 28.5h12v0z" />
    <glyph glyph-name="asterisk" unicode=")" horiz-adv-x="203" 
d="M8 -182q29 90 42.5 181t13.5 185q0 142 -13 236t-39 146q28 -1 48 -15t38 -45q28 -50 41 -130.5t13 -191.5q0 -76 -8 -142t-23 -117q-14 -49 -41 -77.5t-60 -28.5l-12 -1v0z" />
    <glyph glyph-name="plus" unicode="*" horiz-adv-x="303" 
d="M139 436q-15 3 -31 5t-32 2q-5 1 -10 1h-9q-12 1 -23 1.5t-22 1.5q5 9 9 16.5t6 14.5q3 9 4.5 18t1.5 20q11 -9 20 -15.5t17 -12.5q3 -2 5.5 -3.5t4.5 -3.5q9 -6 18 -11.5t21 -12.5l22 -14q-3 21 -8 41.5t-11 40.5q-3 10 -5.5 20.5t-5.5 20.5q8 -1 15 -1.5t13 -0.5h4.5
h4.5q8 0 17 0.5t19 1.5q-4 -10 -7 -19t-6 -17q-2 -6 -4 -11.5t-3 -11.5q-4 -13 -7.5 -28t-8.5 -36q5 3 8.5 4.5t7.5 3.5q0 1 1 1.5t2 0.5q5 3 11.5 7.5t18.5 12.5l41 25l20 14q1 -17 3 -28.5t7 -22.5q3 -4 5.5 -8.5t5.5 -9.5h-31h-3.5h-3.5q-17 0 -36.5 -1t-54.5 -6
q4 -3 7 -5.5t6 -4.5q0 -1 0.5 -1h0.5q5 -5 11 -10.5t18 -14.5l37 -31l18 -15q-19 -7 -31 -14.5t-22 -19.5l-3.5 -3.5t-2.5 -3.5q-1 5 -2.5 9t-2.5 9t-3 10.5t-4 10.5q-5 16 -12.5 34.5t-19.5 47.5q-15 -29 -27 -59t-20 -61q-7 9 -13.5 15.5t-12.5 11.5q-7 5 -15 9t-18 7
q9 6 16.5 11.5t13.5 10.5q2 1 3 2t3 2q12 10 26.5 21.5t37.5 31.5v0z" />
    <glyph glyph-name="comma" unicode="+" horiz-adv-x="508" 
d="M266 240h19h20q26 0 63.5 1.5t76.5 3.5q2 1 4 1h4l-37 -64h-152v-26q-1 -20 -1.5 -34.5t-0.5 -28.5v-5v-6l2 -86l-69 -31q1 11 1.5 20.5t1.5 17.5q0 10 0.5 20t0.5 21q1 11 1.5 24t0.5 28v72v12h-31h-31l-92 -2h-27l31 62h25h63h64v14v27l-2 73l-2 52v16l71 29v-8v-50
l-2 -75v-39l-2 -39v0z" />
    <glyph glyph-name="hyphen" unicode="," horiz-adv-x="361" 
d="M232 139l82 -4l-193 -233q-9 2 -19 3.5t-20 3.5q-6 1 -12 2.5t-12 2.5q-5 1 -9.5 2.5t-9.5 2.5q1 1 2 2.5t2 2.5v0v0q2 2 3.5 4t4.5 7q44 37 85.5 82t75.5 93q5 8 10 15l10 14v0z" />
    <glyph glyph-name="period" unicode="-" horiz-adv-x="338" 
d="M35 254h170h24.5t21.5 1q10 0 22 1.5l28 3.5h6l-14 -47h-188h-27l-35 -2l-16 -2l8 45v0z" />
    <glyph glyph-name="slash" unicode="." horiz-adv-x="260" 
d="M102 98l107 -61l-72 -43l-98 67l63 37v0z" />
    <glyph glyph-name="zero" unicode="/" horiz-adv-x="406" 
d="M396 566l-21 -45q-12 -27 -25 -54t-25 -54q-63 -136 -124 -273.5t-111 -277.5q-12 -5 -23.5 -10.5t-22.5 -10.5q-2 -1 -4.5 -2t-4.5 -3q-9 -4 -18.5 -8.5t-17.5 -8.5l17 36q10 24 20.5 47.5t20.5 47.5q61 140 121 282.5t111 287.5l107 46v0z" />
    <glyph glyph-name="one" unicode="0" horiz-adv-x="633" 
d="M594 250q0 -57 -24.5 -110.5t-65.5 -88.5q-35 -29 -77 -40.5t-113 -11.5h-8h-9h-39.5t-41.5 1q-48 4 -92.5 19.5t-74.5 56.5q-20 28 -29.5 63.5t-9.5 73.5v12t1 12q5 76 44 142.5t103 85.5q32 8 76.5 13.5t99.5 5.5q65 0 101.5 -7.5t62.5 -27.5q44 -26 70 -81t26 -118v0z
M469 229q0 13 -1.5 26t-4.5 27q-15 64 -60 117.5t-106 53.5q-4 0 -8 -0.5t-8 -0.5q-52 -10 -96.5 -67.5t-52.5 -125.5q0 -6 -0.5 -11.5t-0.5 -11.5t0.5 -12.5t0.5 -12.5q4 -33 16.5 -64.5t33.5 -56.5q23 -28 51 -41.5t57 -13.5h1.5h1.5q66 1 121 56.5t55 137.5v0z" />
    <glyph glyph-name="two" unicode="1" horiz-adv-x="453" 
d="M66 475l6 2q21 1 49.5 1.5t58.5 1.5q7 1 14 1t15 1q36 1 66.5 2t42.5 2q-7 -35 -12 -82.5t-9 -96.5q-6 -84 -8 -156t-2 -88l139 3l-28 -68h-375l38 68l97 -3h6q8 50 13.5 100.5t5.5 101.5q0 38 -3 76t-10 75h-4t-5 1h-5h-6q-10 0 -21.5 -0.5t-23.5 -0.5q-16 -1 -31.5 -2
t-25.5 -2q-5 -1 -8 -1.5t-5 -0.5l31 65v0z" />
    <glyph glyph-name="three" unicode="2" horiz-adv-x="541" 
d="M287 53q16 2 32 3.5t32 2.5q15 2 29.5 3t29.5 3q20 2 41 5.5t41 7.5l22 4l-39 -84h-450l12 27q83 27 157.5 77.5t129.5 120.5l-27 -10q-5 -1 -9.5 -2t-8.5 -2q-17 -4 -32 -7t-26 -3q-52 0 -89.5 41t-37.5 98q0 67 44 101t96 42q10 2 19 2.5t18 0.5h30q13 0 27.5 -0.5
t28.5 -2.5q52 -7 95.5 -34.5t43.5 -96.5q0 -8 -0.5 -16.5t-2.5 -16.5q-10 -61 -59.5 -124t-146.5 -140v0zM273 240q46 0 80 37.5t34 85.5q0 38 -23.5 64t-58.5 26q-41 0 -70.5 -36t-29.5 -89q0 -40 18 -64t50 -24v0z" />
    <glyph glyph-name="four" unicode="3" horiz-adv-x="496" 
d="M488 469l-50 -45q-12 -11 -23.5 -22.5t-23.5 -22.5q-31 -31 -61.5 -62.5t-58.5 -66.5q11 -1 23 -3t24 -6q46 -11 83.5 -39.5t37.5 -84.5q0 -67 -46.5 -106.5t-102.5 -55.5q-19 -6 -38.5 -8.5t-36.5 -2.5q-20 0 -41 0.5t-42 1.5q-27 2 -53.5 6t-51.5 12l18 81l10 -10
q50 -31 81 -44t59 -13q46 0 80 33.5t34 80.5q0 59 -37.5 82t-86.5 23q-6 0 -12 -0.5t-12 -0.5q-23 -2 -46 -8t-41 -14l-19 -6l-10 21q74 55 135 115t107 126h-17q-19 0 -37.5 -0.5t-37.5 -1.5q-30 -2 -61.5 -5.5t-63.5 -8.5h-15l41 70h6h97h121q38 0 71 -3t65 -7
q8 -1 16 -2.5t16 -2.5v0z" />
    <glyph glyph-name="five" unicode="4" horiz-adv-x="609" 
d="M453 494v-35q0 -19 -0.5 -37.5t-0.5 -37.5t-0.5 -37.5t-1.5 -37.5q-1 -37 -2 -75t-1 -76l-4 -62v-10h8q16 0 32 1t33 2l32 2t32 1l-16 -76h-121v-4l-4 -78l-1 -69l-2 -11l-122 3l2 10l8 70l4 69v10q-47 -1 -81.5 -2t-65.5 -1q-33 -1 -69 -1h-87l317 476q9 2 18 3t17 1
q18 2 36 2h34h6v0zM332 379q-7 -10 -14.5 -20.5t-15.5 -21.5q-39 -57 -77 -117t-69 -124q21 -7 43.5 -10.5t44.5 -4.5q16 -1 32 -1h31h13h12v6q3 17 4 34t1 35q0 14 -0.5 28.5t-0.5 29.5q-1 14 -1.5 28.5t-0.5 28.5v41v30.5t-1 19.5q0 4 -0.5 8.5t-0.5 9.5v0z" />
    <glyph glyph-name="six" unicode="5" horiz-adv-x="576" 
d="M426 482l127 -222l-114 2q-12 18 -23 35.5t-21 35.5q-3 6 -6.5 12t-6.5 12q-7 12 -13.5 23.5t-13.5 23.5l-121 -154q6 -1 29 -9t50 -24q30 -18 55 -46t25 -66q0 -74 -64.5 -117.5t-170.5 -43.5q-32 0 -63.5 2t-57.5 8l-4 91l14 -10q29 -23 49 -33.5t39 -14.5
q6 -1 12 -1.5t13 -0.5q49 0 85 38.5t36 87.5q0 56 -37 82t-82 26h-6h-7q-15 -2 -30.5 -6t-28.5 -12l-8 8l201 273h143v0z" />
    <glyph glyph-name="seven" unicode="6" horiz-adv-x="541" 
d="M512 580l-18 -4q-29 -9 -61.5 -20.5t-66.5 -27.5q-95 -43 -174 -114.5t-79 -177.5q0 -73 45.5 -127t109.5 -54q51 0 88 45.5t37 100.5q0 77 -47.5 113.5t-104.5 36.5q-19 0 -37.5 -3.5t-35.5 -11.5l10 27q41 29 83.5 45t88.5 16q63 0 106.5 -48.5t43.5 -123.5
q0 -10 -1.5 -20t-3.5 -21q-11 -45 -43.5 -87t-78.5 -69l-10 -6l-10 -6q-25 -14 -53.5 -27t-57.5 -20q-14 -4 -29 -6.5t-29 -2.5q-79 0 -125.5 64t-51.5 141q-1 5 -1 9.5v9.5q0 120 72.5 202.5t159.5 145.5q25 18 50 35t48 33l16 10l21 -6q9 -2 16.5 -4t14.5 -4
q13 -3 24 -6.5t22 -8.5q14 -5 28.5 -12t33.5 -16v0z" />
    <glyph glyph-name="eight" unicode="7" horiz-adv-x="475" 
d="M443 482q-12 -19 -24.5 -38.5t-24.5 -38.5q-8 -11 -16 -23l-16 -24q-56 -84 -107 -171t-77 -185q-9 -1 -16 -1.5t-13 -0.5q-10 -1 -21 -1h-30l-65 -1h-27l19 23q68 89 130 185.5t105 199.5h-20l-76 4h-6.5h-7.5q-24 0 -50.5 -2t-66.5 -6l-27 -4l10 16l9 25q10 18 14 25
t6 11q1 0 1.5 1l0.5 1q1 1 2 2.5t2 2.5l10 -3l64 -2l70 -2l75 -2q15 0 39.5 0.5t50.5 1.5q18 1 35.5 2t32.5 2l15 3v0z" />
    <glyph glyph-name="nine" unicode="8" horiz-adv-x="484" 
d="M346 268q42 -21 65 -51.5t23 -68.5q0 -67 -44.5 -101t-98.5 -44q-14 -3 -28 -3.5t-27 -0.5l-29 -1q-14 1 -29 1.5t-30 1.5q-47 5 -86 28.5t-39 83.5q0 49 27.5 75t62.5 42l6 6l-12 6q-37 22 -64 51t-27 80q0 95 61 137.5t134 51.5q2 0 4 0.5t4 0.5q18 2 38 4t40 2h5.5
h5.5q63 -2 116 -30.5t53 -112.5q0 -60 -33.5 -97.5t-82.5 -57.5l-15 -3v0zM311 129q0 44 -28 66.5t-62 22.5q-35 0 -64.5 -23t-29.5 -70q0 -46 27.5 -68t60.5 -22h2.5h3.5q33 2 61.5 25.5t28.5 68.5v0zM367 402q0 53 -34.5 92t-80.5 39q-4 0 -8.5 -0.5t-8.5 -1.5
q-39 -9 -71.5 -48.5t-32.5 -86.5q0 -53 35 -79.5t78 -26.5h1.5h1.5q45 1 82.5 29t37.5 83v0z" />
    <glyph glyph-name="colon" unicode="9" horiz-adv-x="586" 
d="M211 -172l-166 41q2 2 4.5 3t4.5 2q28 14 59.5 28.5t63.5 30.5q93 45 170 112.5t77 186.5q0 78 -50 131t-122 53q-46 0 -76 -39.5t-30 -99.5q0 -36 12.5 -66.5t40.5 -58.5q20 -16 39 -24t37 -8q5 0 9 0.5t9 1.5q18 3 36 12.5t38 23.5l24 -10q-28 -49 -77 -78t-105 -29
q-75 0 -120.5 49t-45.5 127q0 41 14.5 77.5t47.5 71.5q7 8 15.5 16t18.5 16q57 49 111 74.5t92 25.5q81 0 138 -68t64 -149q1 -5 1 -10.5v-10.5q0 -39 -13.5 -80.5t-38.5 -84.5q-42 -72 -115 -141t-167 -125v-1z" />
    <glyph glyph-name="semicolon" unicode=":" horiz-adv-x="270" 
d="M111 98l108 -61l-73 -43l-97 67l62 37v0zM111 301l108 -61l-73 -41l-97 67l62 35v0z" />
    <glyph glyph-name="less" unicode=";" horiz-adv-x="350" 
d="M230 139l83 -4l-194 -233q-9 2 -19.5 3.5t-20.5 3.5q-6 1 -12 2.5t-12 2.5t-10.5 2.5t-9.5 2.5q1 2 2 3t3 2l4 4t5 7q51 45 96.5 97t84.5 107v0zM209 301l107 -61l-72 -41l-96 67l61 35v0z" />
    <glyph glyph-name="equal" unicode="&#x3c;" horiz-adv-x="361" 
d="M354 521v-41l-237 -154l237 -158v-111l-348 236v8l348 220v0z" />
    <glyph glyph-name="greater" unicode="=" horiz-adv-x="541" 
d="M35 117l31 61h26h174q29 0 53.5 0.5t48.5 1.5q23 1 48 2.5t53 3.5l-35 -65h-135l-49 -2h-94l-93 -2h-28v0zM47 240l31 61h26h173q27 0 50.5 0.5t46.5 1.5q24 1 49.5 2.5t55.5 3.5l-36 -65h-132l-51 -2l-92 -2h-94h-27v0z" />
    <glyph glyph-name="question" unicode="&#x3e;" horiz-adv-x="430" 
d="M27 57v41l237 152l-237 160v111l350 -238v-4l-350 -222v0z" />
    <glyph glyph-name="at" unicode="?" horiz-adv-x="350" 
d="M135 102l13 -4q24 -4 42.5 -7t36.5 -5q2 0 5 -0.5t6 -1.5q14 -2 28.5 -4t32.5 -4l-108 -80q-13 3 -26 5.5t-26 6.5q-19 5 -38 11.5t-37 13.5q-7 2 -14.5 4.5t-14.5 5.5l100 59v0zM23 537q18 16 40 29.5t44 24.5q26 12 50.5 19t43.5 7q37 0 61.5 -21t24.5 -53
q0 -37 -21 -65.5t-45 -55.5q-25 -26 -46 -54.5t-21 -66.5q0 -34 20 -47.5t47 -13.5q5 0 9.5 0.5t9.5 0.5q20 3 39.5 9.5t33.5 13.5v-30q-19 -19 -44 -34t-52 -26q-21 -7 -41 -11.5t-37 -4.5q-43 0 -68.5 21t-25.5 53q0 35 20 63.5t44 56.5q23 27 43 55.5t20 63.5
q0 34 -18 46.5t-42 12.5q-5 0 -10.5 -0.5t-10.5 -1.5q-11 -2 -21.5 -5t-20.5 -7l-10 -6l-16 27v0z" />
    <glyph glyph-name="A" unicode="@" horiz-adv-x="758" 
d="M578 80l59 -33q-13 -7 -26.5 -13.5t-27.5 -12.5q-32 -12 -62 -19t-52 -7l-43 -1h-28h-60l-47 -4q-89 1 -162.5 81.5t-73.5 178.5q0 8 0.5 15.5t1.5 15.5q13 107 101 196t196 89h23h37h33h18h5.5h5.5q93 -5 170 -71.5t77 -166.5q0 -12 -1.5 -24t-4.5 -24
q-12 -53 -48.5 -97t-92.5 -48h-12h-7l-12 -2h-5.5t-5.5 1q-22 3 -41 19t-22 38q-10 -7 -19 -12.5t-17 -9.5q-9 -4 -18 -6t-19 -3l-25 -2l-23 -2l-34 -2q-39 0 -64 29.5t-25 76.5q0 59 40 101.5t92 42.5l26 -2l21 -2h24q7 -1 15.5 -2.5t17.5 -2.5l21 -6l10 -2q9 0 20 4t27 11
l8 2l-2 -21q-6 -37 -9 -73.5t-3 -73.5v-14.5t1 -16.5q2 -18 9.5 -32.5t26.5 -14.5q2 0 4.5 0.5t5.5 1.5q25 9 46.5 57.5t21.5 104.5q0 94 -75.5 160.5t-166.5 66.5q-117 0 -194 -89t-78 -195v-1.5v-1.5q0 -43 14 -84.5t45 -77.5q35 -43 87.5 -63.5t107.5 -20.5
q52 -1 101.5 16t86.5 48v0zM473 322q-9 24 -27.5 41.5t-45.5 17.5h-4t-4 -1q-32 -4 -59.5 -36t-34.5 -69q0 -4 -0.5 -8.5t-0.5 -8.5q0 -32 20.5 -57t45.5 -25q32 0 57.5 28t39.5 62q6 15 9.5 29.5t3.5 26.5v0z" />
    <glyph glyph-name="B" unicode="A" horiz-adv-x="791" 
d="M53 271q-1 16 -2 31t-1 29q0 155 71.5 252t169.5 124q33 9 62.5 13t54.5 4q69 0 118.5 -24t90.5 -61q44 -40 76.5 -104.5t44.5 -133.5q3 -18 5 -36t2 -35q0 -14 -1.5 -27.5t-3.5 -27.5q-4 -24 -17.5 -61t-32.5 -77q-11 -24 -23.5 -48t-25.5 -45q-8 -12 -15.5 -22.5
t-14.5 -19.5h-95v1.5v1.5v0.5v1.5q0 14 1.5 27t4.5 26t6.5 25.5t7.5 26.5q6 24 12 52t7 63q-21 8 -52.5 11.5t-66.5 3.5h-20.5t-20.5 -1q-49 -2 -94.5 -9t-70.5 -17q5 -19 12 -37.5t14 -36.5q15 -36 27 -71t12 -66q-14 -3 -21.5 -4.5t-13.5 -1.5h-2h-2q-7 0 -19 1.5t-38 4.5
q-11 9 -29 30t-37 50q-17 25 -33 53.5t-28 58.5q-7 19 -12 38t-7 37v0zM566 299q1 8 1.5 15.5t0.5 15.5q0 25 -4 53t-11 57q-21 83 -64 152t-93 68q-13 0 -27.5 -8.5t-29.5 -23.5q-29 -29 -56 -77t-45 -100q-9 -29 -15 -57.5t-6 -53.5q0 -13 1.5 -24t4.5 -21
q29 14 74.5 19.5t94.5 5.5q53 0 100.5 -5.5t73.5 -15.5v0z" />
    <glyph glyph-name="C" unicode="B" horiz-adv-x="791" 
d="M148 21q-63 68 -97 158.5t-34 185.5v10.5v11.5q4 90 41.5 176t113.5 154q27 2 53 3t51 1q196 0 308 -49t133 -119q1 -3 1.5 -6t0.5 -7q0 -5 -1 -10.5t-4 -11.5q-11 -26 -44 -52t-71 -48q-31 -19 -60 -34t-45 -25q12 -3 23.5 -6.5t23.5 -6.5q72 -23 135.5 -60t81.5 -95
q-2 -43 -56.5 -83t-118.5 -66q-28 -11 -55.5 -19t-50.5 -11q-45 -3 -84.5 -4.5t-76.5 -1.5q-37 -1 -71.5 1.5t-69.5 8.5q-6 1 -13 2.5t-14 2.5v0zM285 63h3h3h2.5h2.5q21 0 45.5 3.5t48.5 10.5q47 12 90.5 32.5t67.5 42.5q9 9 15 18.5t6 17.5v4t-1 3q-9 35 -66 67t-124 51
q-33 10 -66 15.5t-59 5.5q-16 0 -28.5 -1.5t-21.5 -6.5q2 -69 18.5 -121.5t35.5 -91.5q8 -14 15 -26.5t13 -23.5v0zM521 535v2t1 2v2v2q0 50 -63.5 77t-139.5 38l-16 2l-16 2q-25 -25 -43 -66t-29 -85q-8 -33 -12 -65t-4 -57q9 -2 18.5 -3t19.5 -1q18 0 37.5 3t38.5 8
q47 12 91.5 34.5t74.5 47.5q19 15 30 30t12 27v0z" />
    <glyph glyph-name="D" unicode="C" horiz-adv-x="813" 
d="M764 494l-166 -4q-4 0 -17.5 29.5t-42.5 65.5q-20 25 -48 47.5t-66 35.5q-104 -25 -156 -115.5t-52 -194.5q0 -102 48.5 -192t145.5 -119q52 -1 82.5 27t48.5 62q14 26 22.5 49t16.5 33q0 1 0.5 1.5l1.5 1.5l184 9q-1 -5 -2.5 -10.5t-2.5 -10.5q-25 -79 -115 -144.5
t-221 -66.5h-6h-5q-3 1 -6 1h-6q-178 19 -269 126.5t-92 232.5v2v2q1 123 94 230t283 129q116 -1 186.5 -38t107.5 -81q29 -33 40.5 -63t11.5 -45v0z" />
    <glyph glyph-name="E" unicode="D" horiz-adv-x="824" 
d="M166 725l287 -4q158 -48 238.5 -148t82.5 -211v-2.5v-2.5q1 -112 -80 -212t-245 -145l-279 2q-68 66 -101 159.5t-34 193.5v4.5v4.5q2 101 35 196t96 165v0zM299 670q-29 -27 -51 -114.5t-29 -186.5v-4v-4q-1 -17 -2 -33.5t-1 -33.5q0 -84 17.5 -151t57.5 -88
q150 38 222.5 123t74.5 180v2.5v2.5q0 99 -74 187t-215 120v0z" />
    <glyph glyph-name="F" unicode="E" horiz-adv-x="781" 
d="M412 719q106 -21 198 -83.5t132 -151.5l-181 -7q-4 13 -13 36.5t-24 48.5q-19 34 -50 63t-74 33q-82 -49 -124.5 -110.5t-49.5 -124.5q0 -6 -0.5 -11.5t-0.5 -11.5q32 6 60 9t54 3q13 0 26 -0.5t25 -2.5q23 -2 45.5 -6t46.5 -10q0 -12 0.5 -24t1.5 -25l-10.5 1t-27.5 2
t-39 2t-46 1h-4h-4q-41 0 -77 -5t-49 -19q-1 -5 -1.5 -10.5t-0.5 -10.5q0 -20 5.5 -42.5t15.5 -45.5q23 -55 65.5 -102.5t88.5 -54.5q2 0 4 -0.5t4 -0.5q34 8 62.5 33t48.5 53q25 33 38 61l13 28l170 -4v0v0v-1v0q0 -17 -10 -35t-28 -37q-26 -28 -63.5 -54.5t-77.5 -47.5
q-32 -18 -62.5 -31t-55.5 -20q-14 -2 -26.5 -3t-23.5 -1q-12 0 -23 1t-20 2q-8 1 -14.5 2t-13.5 1q-151 50 -222.5 144.5t-71.5 198.5q-1 126 99 235.5t285 134.5v0z" />
    <glyph glyph-name="G" unicode="F" horiz-adv-x="791" 
d="M316 715l10 1t26 2t36.5 2t42.5 1q14 0 27 -0.5t26 -1.5q64 -10 111.5 -42t79.5 -69q39 -42 57 -78l18 -36l-184 2l-12 27t-34 59q-21 31 -51 57.5t-67 28.5q-51 -20 -96 -73t-67 -113q-7 -19 -10.5 -38t-3.5 -37v-1.5v-1.5q22 9 49.5 12.5t55.5 3.5q30 0 58 -2.5
t50 -5.5q21 -3 33.5 -5.5l12.5 -2.5v-66q-12 7 -42 12t-72 5q-32 0 -71 -3.5t-82 -13.5v-4v-4q-1 -3 -1 -5v-4q0 -24 3 -49.5t9 -52.5q5 -28 12.5 -55t15.5 -52q14 -48 26.5 -80l12.5 -32l-133 -4q-33 45 -56.5 92t-38.5 95q-13 38 -19 77t-6 76q-1 123 66.5 225t207.5 154
v0z" />
    <glyph glyph-name="H" unicode="G" horiz-adv-x="848" 
d="M357 723q1 -1 3.5 -1h6.5h8.5t10.5 1h13h14q14 0 30.5 -1t33.5 -3q22 -3 56.5 -15.5t72.5 -33.5q54 -30 100 -75t54 -101h-178q-2 9 -4.5 18t-6.5 18q-16 39 -48 74.5t-67 53.5q-10 5 -21 8t-21 4q-91 -44 -134 -121.5t-47 -162.5q-1 -6 -1 -11.5v-10.5q0 -107 51 -197
t133 -110q12 1 25 7t26 16q22 17 44 43t39 53q16 28 26.5 53.5t10.5 42.5q0 5 -0.5 8.5t-2.5 6.5l-10 2t-10 1q-5 1 -10 1h-10q-19 0 -37 -3t-34 -6t-28 -6t-20 -3h-1.5h-1.5v63q2 2 5 3.5t8 2.5q24 9 75.5 16t109.5 7h5.5h4.5q43 -1 83.5 -6.5t71.5 -18.5q1 -5 1 -10.5
v-10.5q0 -100 -84.5 -187.5t-234.5 -129.5q-6 -1 -11.5 -1.5t-10.5 -1.5q-7 -1 -14.5 -1.5t-15.5 -0.5q-13 0 -27.5 1t-33.5 2q-156 35 -236 136.5t-80 216.5v4.5v5.5q3 112 82 213t237 147v0z" />
    <glyph glyph-name="I" unicode="H" horiz-adv-x="848" 
d="M184 730l138 -5q-18 -27 -33 -57t-27 -60q-19 -50 -30 -98.5t-11 -86.5q0 -7 0.5 -14t1.5 -14q34 11 72 15.5t78 4.5q16 0 32.5 -0.5t32.5 -1.5q41 -3 81 -9t77 -13q1 8 1.5 15.5t0.5 15.5q0 56 -15.5 113t-33.5 114q-6 20 -12 39.5t-12 38.5q10 0 20 0.5t20 0.5
q9 1 19 1h20h12.5t12.5 1h12.5h12.5q63 -69 95.5 -162t32.5 -191v-10v-10q-4 -97 -40 -189.5t-107 -163.5q-3 0 -5.5 0.5t-5.5 0.5t-5.5 0.5t-5.5 0.5q-10 0 -20 -0.5t-20 -1.5q-1 -1 -3 -1h-3q-12 -1 -23.5 -2t-22.5 -1q-7 0 -14.5 0.5t-14.5 1.5q9 26 21.5 53.5t26.5 57.5
q8 18 16 36.5t15 36.5q13 32 21 63t8 61v0.5v1.5v1.5v0.5q-22 15 -75 24t-112 9h-3.5h-3.5q-51 0 -99 -8.5t-78 -25.5v-4.5v-4.5q-1 -3 -1 -5.5v-4.5q0 -30 5 -62t13 -64q12 -44 29.5 -86.5t38.5 -79.5h-140q-65 66 -96 147.5t-36 166.5q-1 9 -1 17.5v16.5q-1 117 40 221
t103 159v0z" />
    <glyph glyph-name="J" unicode="I" horiz-adv-x="338" 
d="M51 721h105h104q-17 -91 -25.5 -179t-9.5 -176q0 -91 9 -182.5t26 -184.5h-10.5h-10.5q-5 1 -10.5 1h-10.5h-28.5t-28.5 -1h-4h-3q-27 0 -54 -0.5t-53 0.5q17 86 28.5 178t13.5 186v17v17q0 84 -9 166t-29 158v0z" />
    <glyph glyph-name="K" unicode="J" horiz-adv-x="656" 
d="M342 719h3h6q10 0 27 0.5t35 0.5q4 1 8 1h8q22 1 38.5 1.5l16.5 0.5q52 -78 83 -166t37 -178q0 -9 0.5 -18t0.5 -18v-7.5v-7.5q-1 -4 -1 -7.5v-7.5q-9 -141 -69 -205.5t-183 -105.5h-18t-18 1h-6h-6h-12h-12h-19.5t-20.5 -1q-12 4 -24 8.5t-24 8.5q-63 23 -115 64
t-52 133v6v7h47h46h40h41l-2 -18t-1 -18q0 -46 24 -80t81 -47q62 44 85.5 113t23.5 151q0 41 -4.5 83.5t-12.5 85.5q-8 45 -18.5 90t-21.5 87q-3 11 -5.5 21.5t-5.5 21.5v0z" />
    <glyph glyph-name="L" unicode="K" horiz-adv-x="734" 
d="M309 721q-7 -15 -13.5 -30t-13.5 -31q-15 -35 -30 -72t-26 -74q-10 -35 -16.5 -69t-6.5 -67v-2.5v-2.5v-3v-3q124 26 205.5 129.5t125.5 222.5q0 1 0.5 2t0.5 2q10 0 20.5 -0.5t20.5 -0.5q31 -1 62 -1h61q-20 -95 -67.5 -173t-121.5 -134q113 -88 150 -191.5t41 -216.5
q-8 1 -16.5 1h-16.5h-11.5h-11.5q-17 0 -34.5 -0.5t-36.5 -1.5h-10t-9 1h-10h-10q3 16 4.5 32.5t1.5 32.5q0 9 -0.5 18.5t-1.5 18.5q-6 71 -32.5 140t-57.5 127q-34 -22 -76 -40t-85 -26q-15 -3 -30 -5t-30 -2h-4.5t-4.5 1h-5.5h-4.5q0 -4 -0.5 -8.5t-0.5 -8.5
q-1 -4 -1 -8.5v-8.5q0 -36 6.5 -70.5t15.5 -68.5q3 -13 6.5 -25.5t7.5 -25.5l10 -36t9 -37q-15 0 -30 -0.5t-30 -1.5q-16 -1 -31 -1.5t-30 -0.5q-58 80 -86 162.5t-28 166.5q0 49 9.5 98.5t27.5 99.5q19 50 46.5 99.5t63.5 98.5q16 -1 33 -2t35 -2h11h11q12 -1 23 -1t22 -1
v0z" />
    <glyph glyph-name="M" unicode="L" horiz-adv-x="734" 
d="M316 723q-26 -62 -44.5 -127t-28.5 -130q-5 -33 -7.5 -65.5t-2.5 -64.5q0 -50 6 -99t19 -96l4 -4t5 -4q11 -10 26 -20t31 -19q20 -11 38.5 -18t30.5 -8h0.5h0.5h0.5h0.5q29 0 73 21.5t92 53.5q15 11 31 22t31 22q14 11 28 21.5t26 20.5q4 -20 5.5 -41t1.5 -42
q0 -20 -1 -40l-2 -40q-1 -6 -1.5 -12.5t-0.5 -12.5q-63 -28 -134 -39.5t-145 -11.5h-12h-13q-55 2 -109.5 8.5t-104.5 17.5q-58 72 -88 150.5t-34 158.5q-1 7 -1 13v12q0 98 36 192.5t103 178.5h6.5h7.5q3 -1 6.5 -1h6.5q14 0 28.5 0.5t28.5 1.5q14 0 28 0.5t28 0.5v0z" />
    <glyph glyph-name="N" unicode="M" horiz-adv-x="1018" 
d="M314 723q74 -75 126.5 -157t71.5 -173q27 89 60 155.5t82 128.5l20 24t21 24q37 -1 73.5 -2.5t73.5 -3.5q65 -82 99 -172t34 -182q1 -94 -35.5 -186.5t-113.5 -178.5q-15 1 -30 1.5t-30 1.5t-30.5 1.5t-30.5 1.5q36 66 58 142.5t27 155.5q0 11 0.5 21.5t0.5 21.5
q0 55 -8.5 108t-28.5 102q-79 -70 -138.5 -169.5t-103.5 -215.5q-4 8 -8.5 16.5t-8.5 16.5q-8 15 -15.5 31t-14.5 31q-36 74 -79.5 142t-127.5 120q-13 -40 -19 -83t-6 -88q0 -16 1 -32l2 -32q7 -77 32 -151.5t66 -136.5q-17 -1 -34 -1.5t-33 -0.5q-17 0 -34 -0.5t-34 -1.5
q-79 68 -118 162.5t-39 195.5v17.5t1 17.5q5 88 38.5 173t94.5 155h70h68v0z" />
    <glyph glyph-name="O" unicode="N" horiz-adv-x="781" 
d="M158 725q-66 -67 -100.5 -157t-34.5 -188q0 -30 3.5 -60t9.5 -60q15 -67 48 -134t84 -127h67.5h67.5q-25 53 -48 112.5t-39 120.5q-11 42 -17 83t-6 80q0 41 7.5 78t24.5 70q81 -48 133.5 -133.5t82.5 -178.5q20 -62 30 -122t13 -109h8h9h8h8h21.5h21.5q10 0 21 0.5
t21 0.5h7.5h7.5q3 0 6.5 -0.5t7.5 -0.5q53 113 84.5 209.5t31.5 185.5q0 45 -9 89t-29 88q-17 37 -42.5 75t-59.5 76h-68h-70q54 -85 74.5 -168.5t20.5 -158.5q0 -61 -9.5 -115.5t-23.5 -98.5q-26 172 -73 291.5t-141 228.5q-5 6 -10 11.5t-10 11.5h-10.5h-25.5
q-8 -1 -16.5 -1h-17.5h-48t-21 1v0z" />
    <glyph glyph-name="P" unicode="O" horiz-adv-x="824" 
d="M330 721q31 -1 63 -1.5t64 -0.5h21.5h21.5q142 -43 209.5 -144.5t67.5 -217.5q0 -109 -75 -205t-166 -137q-13 -7 -26 -11t-26 -7h-76.5h-79.5q-14 3 -28 8.5t-28 12.5q-85 42 -158 128t-84 181q0 6 -0.5 12.5t-0.5 12.5q0 10 0.5 20t2.5 21q14 109 95 204.5t203 123.5v0
zM402 689q-43 -25 -80 -71t-63 -96q-22 -42 -34.5 -82t-13.5 -67v-1.5v-0.5q0 -24 11.5 -65t33.5 -86q26 -53 65 -100t89 -65q90 41 136 128t48 183v2.5v2.5q0 100 -48 189.5t-144 128.5v0z" />
    <glyph glyph-name="Q" unicode="P" horiz-adv-x="699" 
d="M158 723h72.5h70.5h47.5h47.5q3 -1 6 -1.5t5 -1.5q102 -27 186.5 -83.5t84.5 -130.5q0 -19 -9 -40t-25 -43q-42 -59 -127.5 -107.5t-185.5 -48.5q-15 0 -30.5 1.5t-31.5 4.5t-31.5 7.5t-30.5 10.5q9 -54 24.5 -99t32.5 -88q1 -1 1.5 -3t1.5 -3q9 -23 17.5 -46.5
t16.5 -47.5h-64.5h-64.5q-64 78 -102 167t-45 180q0 9 -0.5 18t-0.5 18q0 89 32 174.5t102 161.5v0zM281 668q-37 -58 -56 -131t-19 -150v-21.5t1 -21.5q22 2 47 7.5t50 13.5q57 20 108 51.5t69 65.5q3 6 4.5 11.5t2.5 10.5v1.5v1.5q0 13 -11.5 32t-31.5 39q-27 26 -65 50
t-78 35q-6 2 -11 3l-10 2v0z" />
    <glyph glyph-name="R" unicode="Q" horiz-adv-x="813" 
d="M379 721q137 -3 237.5 -94.5t120.5 -201.5q3 -12 4 -23.5t1 -23.5v-3.5v-3.5q0 -16 -2.5 -33.5t-6.5 -34.5q-7 -30 -18.5 -59t-24.5 -54q-8 -18 -16.5 -33t-15.5 -26l12 -8t13 -8q37 -26 71 -60t55 -72q-19 -1 -38 -1.5t-37 -0.5h-38h-38q-1 28 -12 53t-41 44
q-33 -28 -76 -46t-89 -27q-17 -3 -34 -4.5t-33 -1.5q-139 -2 -244 101.5t-109 270.5v1.5v1.5v0.5v1.5q0 13 1.5 27t5.5 27q22 96 106.5 179.5t182.5 105.5q13 3 26 4.5t26 1.5h3h3h2.5h2.5v0zM383 664q-53 -26 -91.5 -65.5t-62.5 -82.5q-20 -37 -30.5 -72t-10.5 -61v-2.5
t1 -3.5v-2.5v-3.5v-1.5v-1.5q0 -26 9 -58t24 -65q20 -42 46.5 -81.5t54.5 -66.5q14 -13 28.5 -22t27.5 -12q47 11 88 64t67 115q15 35 23.5 69t8.5 60q0 25 -8.5 58.5t-24.5 68.5q-24 52 -62.5 99t-87.5 67v0z" />
    <glyph glyph-name="S" unicode="R" horiz-adv-x="689" 
d="M414 727q56 -19 103.5 -52t78.5 -69q23 -26 36 -50.5t13 -44.5v-1.5v-1.5q-4 -53 -42.5 -97t-83.5 -73q-6 -4 -11.5 -7.5t-11.5 -6.5q54 -48 97 -109.5t59 -125.5q3 -14 5 -28.5t2 -28.5q0 -9 -0.5 -18t-2.5 -17q-18 1 -36.5 1.5t-37.5 0.5h-37.5h-36.5q5 17 7.5 35
t2.5 35q0 64 -27 121t-67 97q-28 -5 -58 -8t-61 -3q-23 0 -46.5 1.5t-47.5 5.5q4 -26 9 -53.5t13 -54.5q12 -46 30.5 -91t47.5 -85h-40h-42q-14 -1 -27.5 -1t-27.5 -1q-64 74 -99 172.5t-37 201.5v5.5v5.5q0 95 29.5 185t90.5 160h42.5h42.5q7 0 13 0.5t12 0.5h74t72 -1v0z
M275 680q-27 -47 -44.5 -105t-22.5 -118q-1 -11 -1.5 -23t-0.5 -23q0 -17 1.5 -34.5t3.5 -34.5q61 11 114.5 35.5t88.5 51.5q26 20 41 38.5t16 32.5q-1 15 -12.5 37t-31.5 45q-26 31 -65.5 58.5t-86.5 39.5v0z" />
    <glyph glyph-name="T" unicode="S" horiz-adv-x="758" 
d="M373 719h2h2h1h2h2h2q85 -1 162.5 -48t116.5 -103q7 -10 12 -19.5t9 -19.5q-35 -13 -72 -17t-81 -4q-8 10 -16 20.5t-16 21.5q-28 35 -61.5 67t-74.5 51q-63 -44 -103.5 -100.5t-60.5 -128.5q104 -3 196 -11t181 -28q35 -8 70 -18t71 -23q1 -8 1 -15.5v-15.5
q0 -118 -61 -186.5t-134 -101.5q-48 -21 -92.5 -29.5t-71.5 -8.5h-2.5h-2.5q-94 2 -181 60t-142 176q22 1 44 1.5t44 0.5h44h44q3 -6 5.5 -11.5t5.5 -11.5q24 -52 56.5 -94.5t102.5 -67.5q2 1 3.5 2t3.5 2q52 28 97 77.5t54 117.5q-23 9 -46 17.5t-46 16.5q-97 34 -198.5 56
t-226.5 29q17 151 95 228.5t168 102.5q24 7 47 10.5t45 4.5v0z" />
    <glyph glyph-name="U" unicode="T" horiz-adv-x="723" 
d="M25 678q105 24 196 36t172 12q85 0 162 -12t152 -36h-4v-8t1 -8v-9v-8v-24t-1 -24v-2.5v-3.5q0 -22 -0.5 -44t0.5 -43q-55 32 -115 61t-137 48q-5 -52 -9.5 -118t-4.5 -138q0 -24 0.5 -48t1.5 -48q3 -70 12.5 -138t27.5 -126h-47h-48h-63.5h-62.5q14 99 25 201t12 205
q0 53 -4 105.5t-12 104.5q-45 -8 -88 -25t-85 -39q-21 -10 -42 -21.5t-43 -23.5v4.5v4.5q0 17 0.5 35t1.5 36v3v3q1 17 1.5 33.5t0.5 32.5v11.5v10.5v0z" />
    <glyph glyph-name="V" unicode="U" horiz-adv-x="836" 
d="M291 721q-28 -50 -45 -106.5t-25 -113.5q-2 -20 -3.5 -39t-1.5 -38q0 -127 52 -230.5t158 -132.5q89 37 135 134t46 214q0 20 -1.5 40.5t-3.5 40.5q-9 61 -30 121t-56 112l132 -2q62 -85 107.5 -172.5t43.5 -181.5q-1 -12 -2.5 -24t-4.5 -24q-24 -108 -118.5 -202
t-202.5 -114q-12 -3 -23 -3.5t-22 -0.5q-16 0 -33 1t-34 5q-122 24 -225 124.5t-111 237.5v4v5v4v4q0 14 1 27.5t3 26.5q12 75 50.5 147.5t84.5 135.5h129v0z" />
    <glyph glyph-name="W" unicode="V" horiz-adv-x="813" 
d="M219 725v-10.5v-10.5q0 -16 0.5 -32t1.5 -32q10 -146 66 -283.5t147 -233.5q122 131 147 280.5t26 319.5h88.5h87.5q2 -14 2.5 -28.5t0.5 -28.5q0 -28 -2.5 -56t-6.5 -56q-26 -169 -111.5 -320.5t-182.5 -214.5q-13 -8 -25 -14t-24 -10q-155 73 -270 279.5t-127 450.5
h30.5h30.5q7 1 14.5 1h15.5h45.5t45.5 -1v0z" />
    <glyph glyph-name="X" unicode="W" horiz-adv-x="1006" 
d="M213 727v-4.5v-4.5v-5.5v-4.5v-14t1 -14q0 -18 0.5 -37t0.5 -38q4 -122 24.5 -238.5t94.5 -202.5q66 91 105 197.5t62 215.5q2 8 3.5 16t3.5 16q4 -26 9 -53t11 -54q22 -99 57 -190.5t93 -147.5q53 73 83.5 210.5t30.5 288.5v16v16t-0.5 16t-0.5 16q22 1 44 1h44h14.5
t14.5 -1h29.5h29.5q2 -13 3 -26.5t1 -27.5q1 -7 1 -13.5v-13.5q0 -35 -3 -70.5t-9 -71.5q-28 -166 -109 -312.5t-185 -196.5q-54 44 -87.5 103.5t-56.5 122.5q-4 10 -7.5 19.5t-6.5 19.5q-4 -9 -8.5 -17.5t-8.5 -17.5q-6 -12 -11.5 -24t-10.5 -25q-21 -48 -45.5 -94
t-62.5 -87q-145 69 -228.5 233.5t-96.5 348.5q-2 16 -2.5 32.5t-0.5 32.5q0 22 1 43t3 42h89.5h86.5v0z" />
    <glyph glyph-name="Y" unicode="X" horiz-adv-x="813" 
d="M37 723q-1 -7 -1.5 -14.5t-0.5 -14.5q0 -9 0.5 -17.5t2.5 -17.5q14 -85 83 -159.5t149 -99.5q-105 -42 -161 -126t-70 -177q-2 -17 -3.5 -34.5t-1.5 -34.5v-6.5v-7.5t0.5 -7.5t0.5 -6.5h46h46h46h46q-3 15 -4.5 30t-1.5 30q1 96 56 172t135 123q77 -48 120 -120.5
t59 -148.5q5 -22 7.5 -43t3.5 -41h47h44h41.5h43.5q0 15 -1 29.5t-3 29.5q-15 103 -79 197.5t-166 141.5q95 47 162.5 123.5t89.5 197.5q-21 1 -43.5 1h-45.5h-16t-15 -1h-30h-29q-21 -88 -72 -166.5t-120 -116.5q-73 32 -115.5 89.5t-57.5 120.5q-4 18 -6 35.5t-2 34.5v1.5
v1.5v0.5v1.5h-13.5h-34.5q-10 -1 -21 -1h-23h-63t-29 1v0z" />
    <glyph glyph-name="Z" unicode="Y" horiz-adv-x="746" 
d="M189 721q1 -18 4 -37t7 -38q18 -87 63.5 -164.5t113.5 -106.5q64 41 115.5 127.5t51.5 185.5v8v8q0 3 -0.5 7t-0.5 8q23 0 46.5 0.5t46.5 1.5t46.5 1.5t46.5 0.5v-6.5v-7.5q0 -19 -3 -39t-9 -40q-23 -75 -77.5 -145.5t-116.5 -115.5q-23 -17 -46.5 -29.5t-44.5 -19.5
l-2 -26t-1 -27q0 -24 2 -49.5t6 -51.5q5 -32 12 -63.5t14 -62.5q3 -10 5.5 -20t4.5 -20h-89h-91q9 36 16 71.5t10 70.5q2 18 3 35.5t1 35.5q0 14 -0.5 27t-1.5 27q-1 13 -2.5 26.5t-4.5 26.5q-100 14 -173.5 92t-107.5 170q-11 31 -17.5 62.5t-6.5 59.5v4.5t1 4.5v4v4h45h45
h44.5h44.5v0z" />
    <glyph glyph-name="bracketleft" unicode="Z" horiz-adv-x="758" 
d="M695 693q-127 -134 -225 -289.5t-169 -319.5q27 -16 52 -23.5t49 -7.5q55 0 106 30.5t101 66.5q28 21 55.5 40t56.5 33q1 -35 2.5 -69.5t2.5 -68.5q1 -12 1.5 -23.5t1.5 -22.5q-57 -24 -117.5 -39.5t-122.5 -24.5q-33 -4 -65.5 -6.5t-64.5 -2.5q-85 0 -163.5 14.5
t-140.5 40.5q85 161 208 308.5t253 274.5q-22 22 -53.5 35t-65.5 16q-5 1 -10 1h-10h-2h-2h-2h-2q-65 -5 -123 -37t-114 -69q-2 -2 -4.5 -3.5t-4.5 -3.5l-50 -32t-50 -29q0 8 0.5 16.5t0.5 16.5t0.5 16.5t0.5 16.5q0 30 0.5 60t1.5 60q77 17 154.5 31t154.5 20q26 2 52 3.5
t52 1.5q65 0 128.5 -7t126.5 -24v0z" />
    <glyph glyph-name="backslash" unicode="[" horiz-adv-x="328" 
d="M29 750h229l-29 -66l-16 2l-39 3l-26 4h-9v-19l-2 -178v-250l2 -238l7 -178v-18h8l26 2l39 8h15l34 -64h-229q6 24 9 41.5t5 34.5q1 14 1.5 29t0.5 34v37l-4 318l-4 322q0 56 -0.5 79.5t-3.5 39.5q-1 6 -2.5 11.5t-3.5 12.5l-8 33v0z" />
    <glyph glyph-name="bracketright" unicode="\" horiz-adv-x="430" 
d="M8 566l109 -46q44 -117 92.5 -233.5t97.5 -232.5q21 -50 42 -99t42 -99l15 -38q-22 13 -44 23.5t-46 20.5q-54 140 -114 277t-122 273l-8 18l-8 18q-8 19 -16.5 37t-16.5 36l-23 45v0z" />
    <glyph glyph-name="asciicircum" unicode="]" horiz-adv-x="314" 
d="M271 750l-7 -33q-2 -7 -3.5 -12.5t-2.5 -11.5q-3 -16 -3.5 -39.5t-0.5 -79.5l-4 -322l-2 -318v-38q0 -18 0.5 -33t1.5 -29q2 -17 4.5 -34.5t7.5 -40.5l-227 -1l31 64h16l39 -8l27 -2h8v18l6 178l4 238v250l-4 178v19h-8l-27 -4l-39 -3l-14 -2l-29 66h226v0z" />
    <glyph glyph-name="underscore" unicode="^" horiz-adv-x="373" 
d="M184 609q10 -8 21.5 -16.5t23.5 -17.5q8 -5 15.5 -10.5t15.5 -10.5q20 -14 39.5 -26.5t36.5 -21.5l-49 -68q-2 1 -3.5 2t-3.5 2t-4 2.5t-3 2.5q-7 5 -14 11t-19 17l-35 27q-1 1 -2 1.5t-2 1.5l-0.5 0.5l-1.5 1.5q-7 6 -15 13.5t-18 18.5l-143 -101l26 85l10 4l54 36
q12 6 21 12t18 11q2 2 4.5 3.5t4.5 3.5q6 4 11.5 8t11.5 8v0z" />
    <glyph glyph-name="grave" unicode="_" horiz-adv-x="465" 
d="M41 -76h393v-49h-393v49v0z" />
    <glyph glyph-name="a" unicode="`" horiz-adv-x="500" 
 />
    <glyph glyph-name="b" unicode="a" horiz-adv-x="484" 
d="M150 461q7 3 16.5 4.5t19.5 1.5q11 0 23.5 -1.5t24.5 -4.5q34 -7 63 -24t37 -41l-0.5 11.5t-0.5 25.5v1.5v1.5q0 13 -0.5 25t-0.5 14q2 1 6 1.5t9 0.5q7 0 15.5 -0.5t17.5 -1.5q2 0 4.5 -0.5t5.5 -0.5q9 -1 17 -2t13 -1q10 -39 17 -80t11 -82q2 -20 3 -40.5t1 -40.5
q0 -58 -9 -115.5t-29 -110.5h-2.5h-3.5q-2 -1 -4.5 -1h-4.5h-11.5t-12.5 1q-12 0 -23 1t-16 1q-3 1 -3.5 1.5t1.5 0.5q8 2 10.5 8.5t2.5 16.5v5t-1 5q0 5 -1 10t-1 9q-2 6 -3 10l-1 4q-11 -22 -32.5 -38.5t-44.5 -26.5q-18 -7 -35 -10.5t-29 -3.5h-4h-4q-90 8 -140.5 75
t-51.5 145v5.5v4.5q0 76 39 137t112 99v0zM223 416q-6 -3 -12 -7.5t-12 -10.5q-21 -22 -39.5 -59t-26.5 -77q-2 -10 -3 -20.5t-1 -20.5v-3v-4q-1 -1 -1 -3v-4q0 -11 1.5 -22.5t4.5 -22.5q9 -37 30.5 -70.5t50.5 -46.5q35 18 51.5 53.5t24.5 74.5q3 14 5.5 28.5t4.5 28.5
q2 6 2.5 12t0.5 12q0 7 -1 14.5t-2 15.5q-6 26 -18 51t-26 44q-9 13 -18 22.5t-16 14.5v0z" />
    <glyph glyph-name="c" unicode="b" horiz-adv-x="496" 
d="M127 645h29h28h27h29q-8 -14 -19.5 -34.5t-23.5 -43.5q-2 -5 -4.5 -10t-4.5 -10q-18 -37 -32.5 -69t-14.5 -43q0 -3 1.5 -3.5t5.5 2.5q21 18 43.5 26t45.5 8h8t8 -1q61 -6 116.5 -54.5t82.5 -105.5q9 -20 14 -39t5 -36q0 -14 -2 -29t-6 -30q-19 -65 -75.5 -119
t-147.5 -54h-2.5h-2.5h-3h-3q-46 0 -68.5 16t-37.5 37l4 -6.5t8 -16.5q3 -7 5.5 -15t4.5 -16h-19h-32q-14 1 -27 1h-20q-12 43 -20 86.5t-11 87.5q-1 15 -1.5 29.5t-0.5 29.5q-1 109 27.5 214.5t85.5 197.5v0zM242 412q-51 -24 -75 -72.5t-24 -102.5v-2.5v-3.5
q1 -55 25 -105.5t66 -78.5q33 17 60.5 55.5t39.5 81.5q4 13 6 24.5t2 23.5q0 11 -1 23t-3 24q-9 42 -32.5 80t-63.5 53v0z" />
    <glyph glyph-name="d" unicode="c" horiz-adv-x="484" 
d="M250 467q17 0 36.5 -4.5t39.5 -11.5q51 -19 95 -54t50 -75h-69h-68q-4 8 -9 17t-10 19q-11 18 -26.5 35t-40.5 25q-48 -28 -74.5 -77t-29.5 -103v-5.5v-5.5q0 -55 25 -104.5t77 -75.5q32 14 54 42t38 59h30.5h30.5h30h30q-11 -54 -66.5 -96.5t-119.5 -51.5
q-9 -2 -17.5 -2.5t-16.5 -0.5h-1.5h-0.5h-1.5h-1.5q-8 0 -16.5 1t-16.5 2q-63 15 -117.5 70t-70.5 118q-3 11 -4 21.5t-1 20.5q0 9 1.5 18t4.5 18q17 68 75.5 127.5t125.5 71.5q7 1 13.5 1.5t13.5 0.5h2h2h2h2v0z" />
    <glyph glyph-name="e" unicode="d" horiz-adv-x="484" 
d="M234 645h21h22h12.5h12.5q4 0 7 0.5t6 0.5h19h18q47 -85 71.5 -176.5t30.5 -183.5q1 -15 1.5 -30.5t0.5 -30.5q1 -58 -5.5 -114t-18.5 -111h-20h-27q-16 -1 -29.5 -1.5t-19.5 -1.5q-2 7 -2.5 10t-1.5 6v3v5q-6 -3 -11.5 -5t-11.5 -4q-15 -6 -33 -9.5t-46 -5.5h-2.5h-2.5
q-83 -1 -140.5 56.5t-72.5 127.5q-2 11 -3 22t-1 22q0 9 1.5 17.5t3.5 17.5q19 71 87.5 129.5t155.5 58.5q14 0 27.5 -1.5t27.5 -5.5q-1 4 -1.5 8.5t-1.5 9.5q-8 43 -26 85.5t-38 80.5q-2 5 -4.5 10t-5.5 10v0zM225 402q-6 -2 -13.5 -8.5t-15.5 -16.5q-13 -16 -25 -40
t-19 -49q-3 -12 -5 -24t-2 -23v-2.5v-2.5v-3v-3q1 -15 3.5 -33t7.5 -36q11 -43 33.5 -79.5t56.5 -38.5q32 19 54 55.5t31 77.5q2 10 3 19.5t1 19.5v4v4q-1 1 -1 3v4q0 11 -1.5 22.5t-4.5 23.5q-10 42 -35.5 78.5t-67.5 47.5v0z" />
    <glyph glyph-name="f" unicode="e" horiz-adv-x="553" 
d="M506 295h-4.5t-4.5 -1q-84 -5 -165.5 -20t-155.5 -75v-1.5v-2.5q0 -8 1 -16t3 -16q9 -37 33 -70t51 -44q2 -1 3.5 -1.5t2.5 -0.5q8 2 16 7.5t17 13.5q13 14 26 33t24 39q8 14 14 28.5t10 26.5q16 0 32 -0.5t33 -0.5q16 0 32 -0.5t32 -0.5q-18 -96 -81.5 -141t-135.5 -53
q-5 -1 -9.5 -1.5t-8.5 -0.5h-2.5h-2.5h-3h-3q-88 -1 -156.5 63.5t-83.5 141.5q-2 9 -3 18t-1 18v6.5t1 7.5q7 70 68.5 132t133.5 82q14 3 27.5 5t26.5 2q12 0 24.5 -1.5t25.5 -4.5q62 -14 115.5 -58t67.5 -114v0zM178 293q42 23 77 30.5t69 9.5q5 0 9.5 0.5t8.5 0.5
q-1 4 -3 8t-4 9q-7 12 -16 24t-19 22q-10 9 -18.5 16t-15.5 9q-6 0 -17.5 -9t-25.5 -23q-10 -11 -19.5 -24t-16.5 -27q-4 -9 -7 -18.5t-3 -17.5v-5.5t1 -4.5v0z" />
    <glyph glyph-name="g" unicode="f" horiz-adv-x="441" 
d="M229 650q69 -2 106.5 -38t55.5 -79q6 -15 11 -30t8 -28h-21.5h-21.5q-21 -1 -42 -1t-42 1q-1 3 -1.5 5.5t-1.5 5.5q-2 9 -4.5 19t-5.5 21q-8 27 -20.5 51t-36.5 32q-5 -1 -12.5 -13t-14.5 -31q-9 -25 -18 -58.5t-14 -68.5q-3 -20 -5 -39.5t-2 -37.5v-6v-6q0 -4 0.5 -7
t0.5 -6q23 8 43.5 10.5t39.5 2.5h12.5h13.5q7 -1 13.5 -1h12.5q1 -4 1 -8.5v-9.5v-6.5v-6.5v-4v-3q-1 -5 -1 -10v-9q-13 3 -25.5 4.5t-25.5 1.5q-19 1 -40 -3.5t-44 -14.5q0 -10 0.5 -20.5t1.5 -20.5q5 -66 27 -129t57 -110q-9 0 -19.5 -0.5t-21.5 -0.5h-2h-1
q-10 0 -19.5 -0.5t-18.5 -0.5q-10 3 -22 14.5t-24 28.5q-23 34 -44.5 85t-32.5 106q-4 21 -6.5 41.5t-2.5 39.5v2.5v2.5v2.5v2.5q0 11 1 22l2 22q12 107 62.5 195.5t136.5 88.5h2h2h1h2v0z" />
    <glyph glyph-name="h" unicode="g" horiz-adv-x="541" 
d="M344 447q0 -1 1.5 2t2.5 6v0.5v0.5q2 3 3 6l1 3h27.5h27.5h26.5h27.5q4 -19 9 -38.5t10 -39.5q10 -40 19 -80.5t9 -81.5v-2v-2v-2v-2q0 -34 -3 -71.5t-9 -76.5q-17 -105 -71.5 -195t-174.5 -103h-2.5t-3.5 -1h-2.5h-3.5q-57 0 -105 49.5t-71 108.5q-1 4 -2.5 8t-2.5 8
h29.5h28.5h36.5h37.5l4 -14l4 -14q8 -22 19 -41.5t23 -28.5q4 -4 7.5 -5.5t7.5 -1.5h2.5h1.5q21 10 36.5 41.5t15.5 71.5q0 10 -1.5 20t-3.5 21q-138 -2 -209 67t-72 158v4t1 4v4v4q1 12 3.5 25t6.5 25q22 69 82 125.5t140 56.5q20 1 42.5 -3.5t44.5 -15.5v0zM277 47
q47 25 70 74.5t23 104.5v6.5v7.5q-3 58 -30 110.5t-76 77.5q-27 -16 -49.5 -53t-33.5 -78q-3 -14 -5 -27.5t-2 -26.5v-1.5v-0.5v-1.5v-1.5q1 -14 2.5 -29.5t5.5 -30.5q8 -42 30 -79.5t65 -51.5v0z" />
    <glyph glyph-name="i" unicode="h" horiz-adv-x="576" 
d="M244 652q1 -1 -5.5 -31.5t-14.5 -65.5q-1 -2 -1 -3v-2q-9 -36 -15.5 -64.5l-6.5 -28.5q24 6 46 8.5t41 2.5q108 0 163 -68.5t69 -169.5q0 -4 0.5 -9t0.5 -9q1 -5 1 -9.5v-9.5q0 -49 -10.5 -96t-23.5 -91h-64h-63q2 21 4.5 41.5t5.5 41.5q4 33 8 66.5t4 67.5q0 11 -1 21.5
t-4 21.5q-10 50 -40 94t-68 62q-34 -32 -59.5 -77.5t-36.5 -98.5l-2 -12t-1 -11q-1 -6 -1.5 -12t-0.5 -12q0 -12 1 -24.5t3 -25.5q2 -18 5.5 -35.5t6.5 -35.5l8 -38t6 -38q-15 -1 -30 -1.5t-30 -0.5h-30.5t-30.5 -1q-18 71 -27 135t-9 123q0 41 4 80t13 78q12 56 33.5 112.5
t52.5 117.5q12 0 24.5 1t25.5 3q12 1 24.5 2t24.5 1v0z" />
    <glyph glyph-name="j" unicode="i" horiz-adv-x="281" 
d="M94 465q-2 0 16.5 0h39.5h39.5h17.5q9 -35 14 -72.5t7 -75.5q0 -11 0.5 -22t0.5 -22q0 -82 -12.5 -156t-32.5 -122q-15 1 -30 1.5t-30 0.5t-30.5 0.5t-30.5 1.5q14 81 26 165t13 174q0 31 -2 63t-6 64v0zM35 607q2 18 20.5 31t40.5 19q9 3 17 4t15 1h1.5h1.5h0.5h1.5
q6 0 13 -1t14 -3q23 -5 42 -19.5t19 -35.5v-1.5v-1.5q-1 -33 -28.5 -49.5t-60.5 -16.5h-1.5h-1.5q-35 1 -64.5 19.5t-29.5 53.5v0z" />
    <glyph glyph-name="k" unicode="j" horiz-adv-x="260" 
d="M76 461q13 1 26 1.5t27 0.5q13 0 26.5 0.5t26.5 1.5q20 -63 32 -132.5t16 -140.5q0 -15 0.5 -29t0.5 -28q0 -106 -19.5 -205t-61.5 -175q-11 -1 -24.5 -2t-26.5 -1q-7 -1 -13.5 -1h-13.5q20 118 29.5 215t10.5 182q0 85 -9.5 161.5t-26.5 151.5v0zM20 576v1.5v1.5
q0 34 27.5 50.5t61.5 16.5q33 0 61 -16.5t29 -49.5q0 -19 -17.5 -33t-38.5 -20q-7 -3 -14.5 -4.5t-13.5 -1.5q-7 0 -14.5 0.5t-14.5 2.5q-25 4 -45.5 17t-20.5 35v0z" />
    <glyph glyph-name="l" unicode="k" horiz-adv-x="496" 
d="M189 648q-22 -74 -34.5 -135t-16.5 -120q-1 -13 -1.5 -25.5t-0.5 -25.5q0 -22 1.5 -45t3.5 -47q15 5 32 16t34 26q30 25 58 59.5t49 71.5q7 12 13 24t11 24q17 0 32.5 -0.5t31.5 -1.5q15 -1 30.5 -1.5t32.5 -0.5q-18 -55 -50 -100t-73 -86q26 -27 46 -55.5t34 -56.5
q22 -43 32.5 -84t10.5 -77v-5.5v-5.5q-35 1 -70 1.5t-69 0.5v4.5t1 5.5v5.5v5.5q0 15 -1 30t-3 30q-5 44 -18 85.5t-35 72.5q-16 -11 -35.5 -18.5t-39.5 -13.5q-7 -2 -14.5 -4t-14.5 -5l-14 -4t-13 -4q2 -16 3 -32.5t2 -31.5q0 -7 0.5 -13t0.5 -12q2 -25 5 -51t10 -52
q-15 0 -30.5 0.5t-30.5 0.5q-16 0 -31.5 0.5t-30.5 0.5q-20 61 -29.5 127.5t-9.5 134.5v16.5t1 17.5q2 93 22.5 183.5t58.5 169.5h26h29h28h26v0z" />
    <glyph glyph-name="m" unicode="l" horiz-adv-x="270" 
d="M8 648h44h46q68 -126 98.5 -235.5t30.5 -210.5q0 -52 -7 -103.5t-21 -101.5q-15 0 -29.5 0.5t-29.5 0.5t-30 0.5t-30 0.5q7 43 10.5 85.5t3.5 84.5q0 92 -14 181.5t-37 178.5q-8 30 -16.5 59.5t-18.5 59.5v0z" />
    <glyph glyph-name="n" unicode="m" horiz-adv-x="871" 
d="M434 408q10 7 18.5 14t17.5 13q23 15 47.5 24t57.5 9h10.5t10.5 -1q115 -7 179.5 -75.5t64.5 -183.5q0 -46 -11 -98.5t-34 -110.5q-18 0 -33 0.5t-30 0.5h-30.5h-33.5q11 31 16 69.5t5 79.5v10v10q-3 90 -25.5 165.5t-58.5 79.5h-4.5h-4.5q-58 1 -83 -57t-25 -138
q0 -21 1.5 -42t3.5 -43q5 -34 12 -68.5t16 -65.5h-42h-41h-42h-42q1 10 2.5 21t2.5 22q3 21 5.5 42t4.5 42t3 42t1 41q1 71 -19 126.5t-79 71.5q-61 -5 -87 -65t-26 -136q0 -9 0.5 -17.5t0.5 -17.5q3 -47 13.5 -92t26.5 -78q-19 0 -38 -0.5t-38 -0.5t-38 -0.5t-38 -0.5
q-14 41 -22.5 83.5t-11.5 84.5q0 11 -0.5 21.5t-0.5 21.5q0 66 12.5 130.5t34.5 123.5h30h28h31.5h33.5v-4.5v-6.5v-6v-5q19 13 41.5 19t46.5 6q6 0 12 -0.5t13 -0.5q38 -5 74 -20.5t61 -38.5v0z" />
    <glyph glyph-name="o" unicode="n" horiz-adv-x="576" 
d="M186 443l3.5 3.5t3.5 2.5q13 12 29 18.5t46 6.5h11t12 -1q141 -10 194.5 -99.5t53.5 -201.5q0 -11 -0.5 -22.5t-1.5 -22.5q-2 -34 -8.5 -67.5t-14.5 -64.5q-34 0 -67.5 1t-67.5 3q5 29 6 58.5t2 58.5q0 23 0.5 45t1.5 44v3.5v3.5v3.5v3.5q1 69 -26.5 119t-60.5 68
q-7 4 -14.5 6t-14.5 2q-34 -5 -56.5 -42.5t-34.5 -81.5q-5 -19 -8 -37t-4 -34v-2.5v-2.5v-3v-3q0 -27 3.5 -56.5t10.5 -59.5q6 -24 13.5 -47.5t17.5 -45.5q-18 0 -35.5 -0.5t-34.5 -0.5q-18 0 -35 -0.5t-34 -0.5q-22 52 -34.5 108.5t-15.5 112.5q-1 10 -1 19.5v18.5
q0 13 0.5 26t1.5 27q3 39 10 78.5t18 77.5h27.5h38.5h37h28v-0.5t1 -1.5v-1.5v-0.5q0 -1 -0.5 -3t-0.5 -4q0 -1 -0.5 -3t-0.5 -4v-0.5t1 -1.5v-1.5v-0.5v0z" />
    <glyph glyph-name="p" unicode="o" horiz-adv-x="553" 
d="M283 467q13 0 27 -2.5t28 -6.5q73 -21 134 -82.5t61 -131.5v-6v-5q-4 -75 -67 -140.5t-138 -83.5q-10 -2 -20.5 -3.5t-20.5 -1.5h-2.5h-2.5h-4h-5q-84 4 -157.5 72.5t-89.5 149.5q-1 8 -2 16.5t-1 17.5v0.5v0.5v0.5v0.5q0 65 58 119.5t128 75.5q17 5 34 7.5t33 2.5h4h3v0
zM283 434h-0.5h-0.5h-0.5h-0.5q-37 0 -63 -35.5t-39 -77.5q-4 -16 -6.5 -31.5t-2.5 -29.5q0 -15 2 -32t6 -34q11 -49 38.5 -90t70.5 -43h1.5h1.5q36 0 58 37.5t31 82.5q3 16 4.5 32t1.5 30v2v2v1v2q0 14 -2 30.5t-5 33.5q-10 44 -33.5 81t-61.5 39v0z" />
    <glyph glyph-name="q" unicode="p" horiz-adv-x="543" 
d="M523 242q0 -10 -1.5 -20.5t-4.5 -21.5q-18 -81 -89 -148t-171 -67q-18 0 -36 2.5t-37 7.5v-6v-6q0 -29 6.5 -58t16.5 -58q9 -26 20.5 -52t23.5 -52q1 -3 2.5 -6t2.5 -6h-23.5h-27.5h-25h-22q-58 102 -100 215t-47 229v10.5v11.5q0 63 14 125.5t45 122.5h18.5h16.5
q3 -1 6 -1h7h8.5h8.5h17t20 1q-2 -2 -4.5 -7.5t-5.5 -11.5q-1 -2 -1.5 -4t-1.5 -5q-5 -11 -8 -20l-3 -9q23 30 52 43.5t62 13.5q12 0 24 -1.5t25 -4.5q61 -15 116.5 -60.5t80.5 -96.5q7 -15 11 -30.5t4 -29.5v0zM273 418h-2t-1 1h-2h-2q-29 1 -53.5 -38t-37.5 -86
q-5 -20 -8 -39t-3 -35q0 -15 2 -31.5t6 -34.5q11 -45 35 -82.5t63 -37.5t62 37.5t35 82.5q5 18 8.5 34.5t5.5 31.5q1 5 1 9.5v9.5q0 7 -0.5 14.5t-1.5 14.5q-7 41 -29.5 77.5t-48.5 56.5q-7 6 -14.5 9.5t-14.5 5.5v0z" />
    <glyph glyph-name="r" unicode="q" horiz-adv-x="553" 
d="M0 246v1.5v0.5q0 15 4 31.5t12 32.5q26 54 83 100t120 54q6 1 11.5 1.5t11.5 0.5q37 0 71.5 -18t61.5 -61l-3 12t-7 27q-1 2 -1.5 3.5t-0.5 3.5q-3 11 -6 20.5t-5 11.5q15 0 26 0.5t22 1.5h0.5h1.5q11 1 23 1.5t28 0.5q30 -60 43.5 -121t13.5 -123q1 -124 -42.5 -244.5
t-104.5 -227.5h-22.5h-25.5h-26.5h-22.5q1 3 2.5 6t2.5 6q11 23 21 45.5t18 44.5q13 32 20.5 64t7.5 65v3v3v3.5v3.5q-19 -5 -37 -7.5t-35 -2.5q-102 -1 -173 67t-88 150q-2 10 -3.5 20t-1.5 20v0zM250 422q-6 -1 -12.5 -4t-13.5 -8q-26 -17 -49 -53.5t-31 -77.5
q-1 -7 -2 -14.5t-1 -15.5v-5.5t1 -5.5q0 -3 0.5 -5.5t0.5 -5.5q2 -15 5 -31.5t8 -33.5q11 -46 33.5 -84.5t62.5 -38.5q39 0 63.5 38.5t34.5 84.5q4 16 5.5 31t1.5 29v1.5v1.5v0.5v1.5q0 16 -3 35.5t-8 38.5q-13 46 -36.5 84.5t-52.5 37.5h-2h-1q-1 -1 -2 -1h-2v0z" />
    <glyph glyph-name="s" unicode="r" horiz-adv-x="430" 
d="M180 389q53 44 108.5 60.5t113.5 19.5v-26.5v-27.5v-27.5v-26.5q-9 -1 -18 -1h-19h-2h-2q-50 -1 -98 -8t-87 -47q-4 -27 -6.5 -54.5t-2.5 -55.5q0 -25 1.5 -49.5t4.5 -48.5q3 -25 7 -49.5t9 -48.5h-32h-32t-32 -0.5t-32 -1.5q-16 63 -28.5 130.5t-13.5 136.5
q0 52 10 103.5t34 101.5q16 0 32 -0.5t32 -0.5t32.5 -0.5t33.5 -0.5q-1 -9 -3 -19t-3 -20q-1 -1 -1 -2v-2q-2 -9 -3.5 -18t-2.5 -17v0z" />
    <glyph glyph-name="t" unicode="s" horiz-adv-x="506" 
d="M465 322q-32 0 -65.5 0.5t-67.5 1.5q0 7 -4 16t-11 18q-6 10 -15 20t-19 18q-9 7 -17.5 11.5t-15.5 4.5q-24 0 -41.5 -21.5t-30.5 -47.5q-4 -8 -7.5 -16.5t-6.5 -15.5q34 -6 70 -15.5t73 -21.5q46 -15 91 -33.5t86 -39.5q-7 -99 -66 -146.5t-128 -61.5q-15 -3 -30.5 -5
t-29.5 -3h-1.5h-1.5q-59 0 -112 37.5t-79 83.5q-6 9 -9.5 17.5t-6.5 17.5q17 0 34 -0.5t34 -0.5t34 -0.5t34 -0.5q3 -6 5.5 -13t6.5 -14q13 -28 32 -51.5t47 -23.5h1.5h1.5q22 1 40 20.5t29 42.5q6 13 10 26t5 22q-59 39 -130.5 63.5t-144.5 45.5q-2 1 -4.5 1.5t-4.5 1.5
q-10 3 -19.5 5.5t-18.5 5.5q17 78 75.5 125t126.5 63q8 2 16.5 3.5t17.5 2.5q2 0 3.5 0.5t3.5 0.5h3h3q6 0 12 -0.5t12 -1.5q45 -8 87 -40.5t72 -70.5q6 -8 11 -15.5t10 -15.5v0z" />
    <glyph glyph-name="u" unicode="t" horiz-adv-x="418" 
d="M301 646q-4 -13 -8 -25.5t-9 -25.5q-3 -10 -6.5 -20t-6.5 -19q-7 -23 -12 -45.5t-7 -45.5q44 -3 78 -13.5t63 -27.5v-57v-56q-3 3 -6 5.5t-6 4.5q-31 25 -63.5 40.5t-75.5 25.5q-3 -30 -4.5 -60t-1.5 -59v-18.5t1 -19.5q1 -56 7 -113t16 -117h-61.5h-59.5
q-12 57 -19 120.5t-7 130.5q0 21 0.5 42t2.5 42q0 10 1 21t2 21q-19 -12 -42 -26.5t-52 -39.5q2 31 2 60.5v58.5q9 3 17.5 6.5t16.5 6.5q1 0 1.5 0.5t1.5 0.5q16 7 32.5 13t32.5 8q9 37 19.5 68t25.5 61q6 13 13.5 25.5t15.5 25.5h24t24 1h12.5h12.5h12.5h12.5v0z" />
    <glyph glyph-name="v" unicode="u" horiz-adv-x="543" 
d="M199 475q-1 -10 -2.5 -20.5t-3.5 -20.5q-6 -44 -11.5 -87.5t-5.5 -86.5v-4v-4v-4v-4q0 -16 3 -33.5t7 -35.5q13 -48 35 -87.5t47 -40.5h0.5h0.5h0.5h0.5q43 1 64 42.5t31 91.5q4 19 7 38.5t5 36.5q2 9 2 18v17q0 23 -3 46t-7 45q-1 3 -1.5 6.5t-1.5 7.5l-6 38t-5 39h22
t21 1h11.5h10.5q17 0 33 0.5t31 0.5q9 -26 15.5 -52t10.5 -52q3 -26 5 -52t2 -52q0 -66 -9 -131t-19 -127q-1 -4 -1.5 -7t-1.5 -7q-4 0 -16.5 -0.5t-26.5 -0.5h-0.5h-1.5q-13 0 -25.5 -0.5t-17.5 -0.5v0v1q-1 0 -1 0.5v0.5q0 5 3 17t7 27q0 2 0.5 3.5t0.5 2.5q5 16 8.5 28.5
l3.5 12.5q-18 -36 -56.5 -57.5t-81.5 -27.5q-9 -1 -17.5 -1.5t-17.5 -0.5q-16 0 -31.5 2t-29.5 7q-54 20 -101 74t-57 115q0 2 -0.5 4t-0.5 4q-1 9 -1.5 18t-0.5 17q0 21 2 42.5t6 43.5q6 36 15 71t19 69q1 2 1.5 4.5t1.5 4.5h66h63v0z" />
    <glyph glyph-name="w" unicode="v" horiz-adv-x="529" 
d="M168 467q8 -92 25 -181.5t78 -178.5q69 89 85.5 179t16.5 181h22.5h22.5h46h44q-2 -25 -5 -51.5t-7 -52.5q-20 -113 -73 -215.5t-153 -152.5q-88 45 -153.5 159.5t-78.5 243.5q-2 13 -2.5 26.5t-0.5 26.5v4v4v4v4h33h34h33h33v0z" />
    <glyph glyph-name="x" unicode="w" horiz-adv-x="631" 
d="M176 469q-7 -30 -11 -63t-4 -67v-3.5v-3.5q1 -60 14.5 -116.5t43.5 -92.5q30 24 53 68t37 92q2 4 3 8l2 8q3 -8 5.5 -16.5t5.5 -16.5q15 -41 38.5 -80t56.5 -67q27 44 42 99.5t15 116.5q0 22 -2 44t-6 44q-2 11 -4.5 22t-5.5 22q21 1 41.5 1t40.5 -1h20.5h20.5
q11 -30 18 -61.5t10 -63.5q0 -8 0.5 -16t0.5 -16q0 -95 -46 -180t-149 -131q-30 18 -52.5 43.5t-43.5 54.5q-2 2 -3 4t-3 4q-20 -31 -42 -59.5t-51 -50.5q-97 47 -150 132t-53 178q0 42 10.5 83t32.5 79q15 0 29 0.5t29 0.5q14 0 28 0.5t29 0.5v0z" />
    <glyph glyph-name="y" unicode="x" horiz-adv-x="553" 
d="M16 473q0 -1 19.5 -1h43.5h15t15 1h22.5h9.5v-0.5v-1.5v-1.5v-0.5q0 -15 3 -32t9 -34q14 -40 43.5 -76.5t74.5 -56.5q39 22 62.5 67t37.5 95q4 11 6.5 22t5.5 21h20.5h20.5h42h40q-15 -79 -51 -138t-103 -91q80 -35 124.5 -102.5t43.5 -146.5h-35.5h-32.5h-26h-28
q-2 64 -29.5 121.5t-95.5 98.5q-55 -32 -91.5 -75.5t-36.5 -105.5q0 -9 1 -18l2 -18h-62h-63v4v4v4v4q-1 72 34 134t123 96q-4 1 -8 2.5t-8 2.5q-45 19 -85.5 62t-56.5 91q-4 12 -6 23.5t-2 22.5q0 6 0.5 12t1.5 11v0z" />
    <glyph glyph-name="z" unicode="y" horiz-adv-x="553" 
d="M227 473q-18 -34 -30 -71.5t-18 -75.5q-1 -13 -2 -25.5t-1 -25.5q0 -65 25 -125.5t80 -104.5q43 22 68.5 68.5t37.5 98.5q3 12 5 24l4 24q0 3 0.5 5.5t0.5 4.5v4.5v5.5q0 24 -6 47t-14 47q-3 5 -5 11l-4 12q-7 17 -13.5 34.5t-10.5 35.5h20h20q5 -1 10.5 -1h10.5h30t30 1
q12 -19 21 -38.5t15 -39.5q14 -39 19 -77t5 -73v-4v-4v-4v-4v-2.5v-2.5v-3v-3q1 -157 -132 -284.5t-307 -155.5q0 9 -1.5 17t-2.5 15q-1 5 -2 9.5t-2 9.5q2 1 3.5 2t3.5 2q20 12 44 24.5t48 27.5q36 21 69 49.5t55 68.5q-104 -2 -182.5 60.5t-89.5 157.5q-1 8 -1.5 15.5
t-0.5 14.5q0 59 20 116t51 112h64.5h64.5v0z" />
    <glyph glyph-name="braceleft" unicode="z" horiz-adv-x="518" 
d="M475 441q-92 -76 -169 -159.5t-111 -203.5q17 -4 33.5 -6.5t30.5 -2.5q46 -1 82 16t71 38l4 2t4 3q13 8 26 15.5t27 14.5q0 -14 0.5 -33t0.5 -38v-1.5v-1.5q0 -20 0.5 -39t0.5 -33q-51 -14 -102 -20.5t-104 -6.5q-59 -1 -120 6.5t-124 18.5q31 122 100.5 212t151.5 171
q-7 3 -16.5 4.5t-19.5 1.5q-16 0 -33 -3t-35 -7q-17 -5 -33.5 -10.5t-31.5 -11.5q-21 -8 -38.5 -15.5t-26.5 -11.5q1 12 1 23.5t1 22.5v3v3q0 12 0.5 25t1.5 28q50 12 100.5 18t102.5 6q57 0 113.5 -7t111.5 -21v0z" />
    <glyph glyph-name="bar" unicode="{" horiz-adv-x="361" 
d="M23 166l14 35l16 -2q34 0 45 24t12 52q1 8 1 15.5v14.5v2v2v35v51q0 48 3.5 70t14.5 38q2 3 4.5 6.5t5.5 6.5q17 19 41 30t52 11h26l23 -2q9 0 15.5 0.5t10.5 0.5t6.5 0.5t5.5 0.5h2.5h2.5l-21 -32q-61 0 -80.5 -41t-22.5 -91q-1 -14 -1 -28v-27v-4v-4v-9t1 -10v-10v-10
v-3.5v-3.5q-1 -33 -11 -61.5t-46 -34.5q32 -5 43 -32.5t13 -58.5q0 -5 0.5 -10.5t0.5 -10.5v-11v-11q-1 -5 -1 -9.5v-9.5v-5.5v-5.5v-27t1 -29q4 -45 23 -82t76 -37l19 1h4l-19 -32q-9 2 -15.5 3.5t-12.5 1.5l-23 -3h-12q-67 1 -99 42t-32 104v54v46v26q0 29 -8.5 52.5
t-43.5 23.5l-26 -2h-8v0z" />
    <glyph glyph-name="braceright" unicode="|" horiz-adv-x="158" 
d="M47 557h62v-698h-62v698v0z" />
    <glyph glyph-name="asciitilde" unicode="}" horiz-adv-x="395" 
d="M346 166h-4l-20 2q-32 0 -41 -22t-10 -49v-4v-4v-16v-16l2 -37v-57q0 -61 -32 -101.5t-96 -40.5l-12 -1l-26 2q-1 1 -1.5 1h-1.5q-4 0 -9 -1.5t-13 -2.5l-21 31h5l20 -2q55 1 74.5 38t22.5 82q1 8 1.5 16.5t0.5 15.5v9.5v8.5q-1 5 -1 9v8v11v13q-1 6 -1 12.5v13.5v6v6
q1 31 12 58t45 33q-36 7 -46 36.5t-11 62.5v3.5v3.5v7.5v6.5v4t1 3v11v10v14.5v14.5v15.5v15.5q-3 48 -23 88.5t-81 40.5l-21 32h4h3q2 0 4 -0.5t4 -0.5q5 0 10.5 -0.5t13.5 -0.5l29 2h23q71 0 95.5 -47t25.5 -104v-4v-4v-2.5v-2.5v-3v-3v-43v-43v-9v-9q1 -32 12 -58t51 -26
l27 2l-15 -35v0z" />
    <glyph glyph-name="bullet" unicode="~" horiz-adv-x="404" 
d="M314 557l18 -18l-8 -6q-25 -26 -54.5 -47.5t-62.5 -21.5q-8 0 -16.5 1.5t-17.5 5.5q-4 2 -8.5 4t-8.5 5q-14 8 -26.5 12t-23.5 4q-8 0 -16 -2t-15 -5q-8 -4 -16 -9.5t-16 -12.5l-18 17l16.5 16.5l19.5 19.5q13 13 28 24t30 18q7 3 14.5 5t14.5 2q8 0 15.5 -2.5t14.5 -7.5
l31 -20q11 -7 22 -10t21 -3t19 3t18 8q7 4 13 9t12 11v0z" />
    <glyph glyph-name="Adieresis" unicode="&#xc4;" 
 />
    <glyph glyph-name="Aring" unicode="&#xc5;" 
 />
    <glyph glyph-name="Ccedilla" unicode="&#xc7;" 
 />
    <glyph glyph-name="Eacute" unicode="&#xc9;" 
 />
    <glyph glyph-name="Ntilde" unicode="&#xd1;" 
 />
    <glyph glyph-name="Odieresis" unicode="&#xd6;" 
 />
    <glyph glyph-name="Udieresis" unicode="&#xdc;" 
 />
    <glyph glyph-name="aacute" unicode="&#xe1;" 
 />
    <glyph glyph-name="agrave" unicode="&#xe0;" 
 />
    <glyph glyph-name="acircumflex" unicode="&#xe2;" 
 />
    <glyph glyph-name="adieresis" unicode="&#xe4;" 
 />
    <glyph glyph-name="atilde" unicode="&#xe3;" 
 />
    <glyph glyph-name="aring" unicode="&#xe5;" 
 />
    <glyph glyph-name="ccedilla" unicode="&#xe7;" 
 />
    <glyph glyph-name="eacute" unicode="&#xe9;" 
 />
    <glyph glyph-name="egrave" unicode="&#xe8;" 
 />
    <glyph glyph-name="ecircumflex" unicode="&#xea;" 
 />
    <glyph glyph-name="edieresis" unicode="&#xeb;" 
 />
    <glyph glyph-name="iacute" unicode="&#xed;" 
 />
    <glyph glyph-name="igrave" unicode="&#xec;" 
 />
    <glyph glyph-name="icircumflex" unicode="&#xee;" 
 />
    <glyph glyph-name="idieresis" unicode="&#xef;" 
 />
    <glyph glyph-name="ntilde" unicode="&#xf1;" 
 />
    <glyph glyph-name="oacute" unicode="&#xf3;" 
 />
    <glyph glyph-name="ograve" unicode="&#xf2;" 
 />
    <glyph glyph-name="ocircumflex" unicode="&#xf4;" 
 />
    <glyph glyph-name="odieresis" unicode="&#xf6;" 
 />
    <glyph glyph-name="otilde" unicode="&#xf5;" 
 />
    <glyph glyph-name="uacute" unicode="&#xfa;" 
 />
    <glyph glyph-name="ugrave" unicode="&#xf9;" 
 />
    <glyph glyph-name="ucircumflex" unicode="&#xfb;" 
 />
    <glyph glyph-name="udieresis" unicode="&#xfc;" 
 />
    <glyph glyph-name="dagger" unicode="&#x2020;" 
 />
    <glyph glyph-name="glyph131" 
 />
    <glyph glyph-name="cent" unicode="&#xa2;" 
 />
    <glyph glyph-name="sterling" unicode="&#xa3;" 
 />
    <glyph glyph-name="section" unicode="&#xa7;" 
 />
    <glyph glyph-name="glyph135" horiz-adv-x="500" 
 />
    <glyph glyph-name="paragraph" unicode="&#xb6;" 
 />
    <glyph glyph-name="germandbls" unicode="&#xdf;" 
 />
    <glyph glyph-name="registered" unicode="&#xae;" 
 />
    <glyph glyph-name="copyright" unicode="&#xa9;" 
 />
    <glyph glyph-name="trademark" unicode="&#x2122;" 
 />
    <glyph glyph-name="acute" unicode="&#xb4;" 
 />
    <glyph glyph-name="dieresis" unicode="&#xa8;" 
 />
    <glyph glyph-name="notequal" unicode="&#x2260;" 
 />
    <glyph glyph-name="AE" unicode="&#xc6;" 
 />
    <glyph glyph-name="Oslash" unicode="&#xd8;" 
 />
    <glyph glyph-name="infinity" unicode="&#x221e;" 
 />
    <glyph glyph-name="plusminus" unicode="&#xb1;" 
 />
    <glyph glyph-name="lessequal" unicode="&#x2264;" 
 />
    <glyph glyph-name="greaterequal" unicode="&#x2265;" 
 />
    <glyph glyph-name="yen" unicode="&#xa5;" 
 />
    <glyph glyph-name="uni00B5" unicode="&#xb5;" 
 />
    <glyph glyph-name="partialdiff" unicode="&#x2202;" 
 />
    <glyph glyph-name="Sigma" unicode="&#x3a3;" 
 />
    <glyph glyph-name="product" unicode="&#x220f;" 
 />
    <glyph glyph-name="pi" unicode="&#x3c0;" 
 />
    <glyph glyph-name="integral" unicode="&#x222b;" 
 />
    <glyph glyph-name="ordfeminine" unicode="&#xaa;" 
 />
    <glyph glyph-name="ordmasculine" unicode="&#xba;" 
 />
    <glyph glyph-name="Omega" unicode="&#x3a9;" 
 />
    <glyph glyph-name="ae" unicode="&#xe6;" 
 />
    <glyph glyph-name="oslash" unicode="&#xf8;" 
 />
    <glyph glyph-name="questiondown" unicode="&#xbf;" 
 />
    <glyph glyph-name="exclamdown" unicode="&#xa1;" 
 />
    <glyph glyph-name="logicalnot" unicode="&#xac;" 
 />
    <glyph glyph-name="radical" unicode="&#x221a;" 
 />
    <glyph glyph-name="florin" unicode="&#x192;" 
 />
    <glyph glyph-name="approxequal" unicode="&#x2248;" 
 />
    <glyph glyph-name="uni2206" unicode="&#x2206;" 
 />
    <glyph glyph-name="guillemotleft" unicode="&#xab;" 
 />
    <glyph glyph-name="guillemotright" unicode="&#xbb;" 
 />
    <glyph glyph-name="ellipsis" unicode="&#x2026;" 
 />
    <glyph glyph-name="Agrave" unicode="&#xc0;" 
 />
    <glyph glyph-name="Atilde" unicode="&#xc3;" 
 />
    <glyph glyph-name="Otilde" unicode="&#xd5;" 
 />
    <glyph glyph-name="OE" unicode="&#x152;" 
 />
    <glyph glyph-name="oe" unicode="&#x153;" 
 />
    <glyph glyph-name="glyph177" 
 />
    <glyph glyph-name="emdash" unicode="&#x2014;" 
 />
    <glyph glyph-name="quotedblleft" unicode="&#x201c;" 
 />
    <glyph glyph-name="quotedblright" unicode="&#x201d;" 
 />
    <glyph glyph-name="quoteleft" unicode="&#x2018;" 
 />
    <glyph glyph-name="quoteright" unicode="&#x2019;" 
 />
    <glyph glyph-name="divide" unicode="&#xf7;" 
 />
    <glyph glyph-name="lozenge" unicode="&#x25ca;" 
 />
    <glyph glyph-name="ydieresis" unicode="&#xff;" 
 />
    <glyph glyph-name="Ydieresis" unicode="&#x178;" 
 />
    <glyph glyph-name="uni2215" unicode="&#x2215;" 
 />
    <glyph glyph-name="currency" unicode="&#xa4;" 
 />
    <glyph glyph-name="guilsinglleft" unicode="&#x2039;" 
 />
    <glyph glyph-name="guilsinglright" unicode="&#x203a;" 
 />
    <glyph glyph-name="uniF001" unicode="&#xf001;" 
 />
    <glyph glyph-name="uniF002" unicode="&#xf002;" 
 />
    <glyph glyph-name="daggerdbl" unicode="&#x2021;" 
 />
    <glyph glyph-name="uni2219" unicode="&#x2219;" 
 />
    <glyph glyph-name="quotesinglbase" unicode="&#x201a;" 
 />
    <glyph glyph-name="quotedblbase" unicode="&#x201e;" 
 />
    <glyph glyph-name="perthousand" unicode="&#x2030;" 
 />
    <glyph glyph-name="Acircumflex" unicode="&#xc2;" 
 />
    <glyph glyph-name="Ecircumflex" unicode="&#xca;" 
 />
    <glyph glyph-name="Aacute" unicode="&#xc1;" 
 />
    <glyph glyph-name="Edieresis" unicode="&#xcb;" 
 />
    <glyph glyph-name="Egrave" unicode="&#xc8;" 
 />
    <glyph glyph-name="Iacute" unicode="&#xcd;" 
 />
    <glyph glyph-name="Icircumflex" unicode="&#xce;" 
 />
    <glyph glyph-name="Idieresis" unicode="&#xcf;" 
 />
    <glyph glyph-name="Igrave" unicode="&#xcc;" 
 />
    <glyph glyph-name="Oacute" unicode="&#xd3;" 
 />
    <glyph glyph-name="Ocircumflex" unicode="&#xd4;" 
 />
    <glyph glyph-name="uniF000" unicode="&#xf000;" 
 />
    <glyph glyph-name="Ograve" unicode="&#xd2;" 
 />
    <glyph glyph-name="Uacute" unicode="&#xda;" 
 />
    <glyph glyph-name="Ucircumflex" unicode="&#xdb;" 
 />
    <glyph glyph-name="Ugrave" unicode="&#xd9;" 
 />
    <glyph glyph-name="dotlessi" unicode="&#x131;" 
 />
    <glyph glyph-name="tilde" unicode="&#x2dc;" 
 />
    <glyph glyph-name="circumflex" unicode="&#x2c6;" 
 />
    <glyph glyph-name="uni02C9" unicode="&#x2c9;" 
 />
    <glyph glyph-name="breve" unicode="&#x2d8;" 
 />
    <glyph glyph-name="dotaccent" unicode="&#x2d9;" 
 />
    <glyph glyph-name="ring" unicode="&#x2da;" 
 />
    <glyph glyph-name="cedilla" unicode="&#xb8;" 
 />
    <glyph glyph-name="uni02BA" unicode="&#x2ba;" 
 />
    <glyph glyph-name="ogonek" unicode="&#x2db;" 
 />
    <glyph glyph-name="caron" unicode="&#x2c7;" 
 />
    <glyph glyph-name="Lslash" unicode="&#x141;" 
 />
    <glyph glyph-name="lslash" unicode="&#x142;" 
 />
    <glyph glyph-name="Scaron" unicode="&#x160;" 
 />
    <glyph glyph-name="scaron" unicode="&#x161;" 
 />
    <glyph glyph-name="Zcaron" unicode="&#x17d;" 
 />
    <glyph glyph-name="zcaron" unicode="&#x17e;" 
 />
    <glyph glyph-name="brokenbar" unicode="&#xa6;" 
 />
    <glyph glyph-name="Eth" unicode="&#xd0;" 
 />
    <glyph glyph-name="eth" unicode="&#xf0;" 
 />
    <glyph glyph-name="Yacute" unicode="&#xdd;" 
 />
    <glyph glyph-name="yacute" unicode="&#xfd;" 
 />
    <glyph glyph-name="Thorn" unicode="&#xde;" 
 />
    <glyph glyph-name="thorn" unicode="&#xfe;" 
 />
    <glyph glyph-name="minus" unicode="&#x2212;" 
 />
    <glyph glyph-name="multiply" unicode="&#xd7;" 
 />
    <glyph glyph-name="uni00B9" unicode="&#xb9;" 
 />
    <glyph glyph-name="uni00B2" unicode="&#xb2;" 
 />
    <glyph glyph-name="uni00B3" unicode="&#xb3;" 
 />
    <glyph glyph-name="onehalf" unicode="&#xbd;" 
 />
    <glyph glyph-name="onequarter" unicode="&#xbc;" 
 />
    <glyph glyph-name="threequarters" unicode="&#xbe;" 
 />
    <glyph glyph-name="franc" unicode="&#x20a3;" 
 />
    <glyph glyph-name="Gbreve" unicode="&#x11e;" 
 />
    <glyph glyph-name="gbreve" unicode="&#x11f;" 
 />
    <glyph glyph-name="Idotaccent" unicode="&#x130;" 
 />
    <glyph glyph-name="Scedilla" unicode="&#x15e;" 
 />
    <glyph glyph-name="scedilla" unicode="&#x15f;" 
 />
    <glyph glyph-name="Cacute" unicode="&#x106;" 
 />
    <glyph glyph-name="cacute" unicode="&#x107;" 
 />
    <glyph glyph-name="Ccaron" unicode="&#x10c;" 
 />
    <glyph glyph-name="ccaron" unicode="&#x10d;" 
 />
    <glyph glyph-name="dcroat" unicode="&#x111;" 
 />
    <glyph glyph-name="arrowright" unicode="&#x2192;" 
 />
    <glyph glyph-name="house" unicode="&#x2302;" 
 />
    <glyph glyph-name="endash" unicode="&#x2013;" 
 />
    <glyph glyph-name="uni00AD" unicode="&#xad;" 
 />
    <glyph glyph-name="filledbox" unicode="&#x25a0;" 
 />
    <glyph glyph-name="glyph262" unicode="&#x2022;" 
 />
    <glyph glyph-name="macron" unicode="&#xaf;" 
 />
    <glyph glyph-name="degree" unicode="&#xb0;" 
 />
    <glyph glyph-name="periodcentered" unicode="&#xb7;" 
 />
    <glyph glyph-name="underscoredbl" unicode="&#x2017;" 
 />
    <glyph glyph-name="exclamdbl" unicode="&#x203c;" 
 />
    <glyph glyph-name="uni207F" unicode="&#x207f;" 
 />
    <glyph glyph-name="peseta" unicode="&#x20a7;" 
 />
    <glyph glyph-name="Gamma" unicode="&#x393;" 
 />
    <glyph glyph-name="Theta" unicode="&#x398;" 
 />
    <glyph glyph-name="Phi" unicode="&#x3a6;" 
 />
    <glyph glyph-name="alpha" unicode="&#x3b1;" 
 />
    <glyph glyph-name="delta" unicode="&#x3b4;" 
 />
    <glyph glyph-name="epsilon" unicode="&#x3b5;" 
 />
    <glyph glyph-name="sigma" unicode="&#x3c3;" 
 />
    <glyph glyph-name="tau" unicode="&#x3c4;" 
 />
    <glyph glyph-name="phi" unicode="&#x3c6;" 
 />
    <glyph glyph-name="arrowleft" unicode="&#x2190;" 
 />
    <glyph glyph-name="arrowup" unicode="&#x2191;" 
 />
    <glyph glyph-name="arrowdown" unicode="&#x2193;" 
 />
    <glyph glyph-name="arrowboth" unicode="&#x2194;" 
 />
    <glyph glyph-name="arrowupdn" unicode="&#x2195;" 
 />
    <glyph glyph-name="arrowupdnbse" unicode="&#x21a8;" 
 />
    <glyph glyph-name="orthogonal" unicode="&#x221f;" 
 />
    <glyph glyph-name="intersection" unicode="&#x2229;" 
 />
    <glyph glyph-name="equivalence" unicode="&#x2261;" 
 />
    <glyph glyph-name="revlogicalnot" unicode="&#x2310;" 
 />
    <glyph glyph-name="integraltp" unicode="&#x2320;" 
 />
    <glyph glyph-name="integralbt" unicode="&#x2321;" 
 />
    <glyph glyph-name="filledrect" unicode="&#x25ac;" 
 />
    <glyph glyph-name="circle" unicode="&#x25cb;" 
 />
    <glyph glyph-name="triagup" unicode="&#x25b2;" 
 />
    <glyph glyph-name="triagrt" unicode="&#x25ba;" 
 />
    <glyph glyph-name="triagdn" unicode="&#x25bc;" 
 />
    <glyph glyph-name="triaglf" unicode="&#x25c4;" 
 />
    <glyph glyph-name="invbullet" unicode="&#x25d8;" 
 />
    <glyph glyph-name="invcircle" unicode="&#x25d9;" 
 />
    <glyph glyph-name="Rcaron" unicode="&#x158;" 
 />
    <glyph glyph-name="upblock" unicode="&#x2580;" 
 />
    <glyph glyph-name="dnblock" unicode="&#x2584;" 
 />
    <glyph glyph-name="block" unicode="&#x2588;" 
 />
    <glyph glyph-name="lfblock" unicode="&#x258c;" 
 />
    <glyph glyph-name="rtblock" unicode="&#x2590;" 
 />
    <glyph glyph-name="ltshade" unicode="&#x2591;" 
 />
    <glyph glyph-name="shade" unicode="&#x2592;" 
 />
    <glyph glyph-name="dkshade" unicode="&#x2593;" 
 />
    <glyph glyph-name="smileface" unicode="&#x263a;" 
 />
    <glyph glyph-name="invsmileface" unicode="&#x263b;" 
 />
    <glyph glyph-name="sun" unicode="&#x263c;" 
 />
    <glyph glyph-name="female" unicode="&#x2640;" 
 />
    <glyph glyph-name="male" unicode="&#x2642;" 
 />
    <glyph glyph-name="spade" unicode="&#x2660;" 
 />
    <glyph glyph-name="club" unicode="&#x2663;" 
 />
    <glyph glyph-name="heart" unicode="&#x2665;" 
 />
    <glyph glyph-name="diamond" unicode="&#x2666;" 
 />
    <glyph glyph-name="musicalnote" unicode="&#x266a;" 
 />
    <glyph glyph-name="musicalnotedbl" unicode="&#x266b;" 
 />
    <glyph glyph-name="Abreve" unicode="&#x102;" 
 />
    <glyph glyph-name="abreve" unicode="&#x103;" 
 />
    <glyph glyph-name="Aogonek" unicode="&#x104;" 
 />
    <glyph glyph-name="aogonek" unicode="&#x105;" 
 />
    <glyph glyph-name="Dcaron" unicode="&#x10e;" 
 />
    <glyph glyph-name="dcaron" unicode="&#x10f;" 
 />
    <glyph glyph-name="Dcroat" unicode="&#x110;" 
 />
    <glyph glyph-name="Eogonek" unicode="&#x118;" 
 />
    <glyph glyph-name="eogonek" unicode="&#x119;" 
 />
    <glyph glyph-name="Ecaron" unicode="&#x11a;" 
 />
    <glyph glyph-name="ecaron" unicode="&#x11b;" 
 />
    <glyph glyph-name="Lacute" unicode="&#x139;" 
 />
    <glyph glyph-name="lacute" unicode="&#x13a;" 
 />
    <glyph glyph-name="Lcaron" unicode="&#x13d;" 
 />
    <glyph glyph-name="lcaron" unicode="&#x13e;" 
 />
    <glyph glyph-name="Nacute" unicode="&#x143;" 
 />
    <glyph glyph-name="nacute" unicode="&#x144;" 
 />
    <glyph glyph-name="Ncaron" unicode="&#x147;" 
 />
    <glyph glyph-name="ncaron" unicode="&#x148;" 
 />
    <glyph glyph-name="Ohungarumlaut" unicode="&#x150;" 
 />
    <glyph glyph-name="ohungarumlaut" unicode="&#x151;" 
 />
    <glyph glyph-name="Racute" unicode="&#x154;" 
 />
    <glyph glyph-name="racute" unicode="&#x155;" 
 />
    <glyph glyph-name="rcaron" unicode="&#x159;" 
 />
    <glyph glyph-name="Sacute" unicode="&#x15a;" 
 />
    <glyph glyph-name="sacute" unicode="&#x15b;" 
 />
    <glyph glyph-name="Tcommaaccent" unicode="&#x162;" 
 />
    <glyph glyph-name="tcommaaccent" unicode="&#x163;" 
 />
    <glyph glyph-name="Tcaron" unicode="&#x164;" 
 />
    <glyph glyph-name="tcaron" unicode="&#x165;" 
 />
    <glyph glyph-name="Uring" unicode="&#x16e;" 
 />
    <glyph glyph-name="uring" unicode="&#x16f;" 
 />
    <glyph glyph-name="uhungarumlaut" unicode="&#x171;" 
 />
    <glyph glyph-name="Uhungarumlaut" unicode="&#x170;" 
 />
    <glyph glyph-name="Zacute" unicode="&#x179;" 
 />
    <glyph glyph-name="zacute" unicode="&#x17a;" 
 />
    <glyph glyph-name="Zdotaccent" unicode="&#x17b;" 
 />
    <glyph glyph-name="zdotaccent" unicode="&#x17c;" 
 />
    <glyph glyph-name="Ldot" unicode="&#x13f;" 
 />
    <glyph glyph-name="ldot" unicode="&#x140;" 
 />
    <glyph glyph-name="SF100000" unicode="&#x2500;" 
 />
    <glyph glyph-name="SF110000" unicode="&#x2502;" 
 />
    <glyph glyph-name="SF010000" unicode="&#x250c;" 
 />
    <glyph glyph-name="SF030000" unicode="&#x2510;" 
 />
    <glyph glyph-name="SF020000" unicode="&#x2514;" 
 />
    <glyph glyph-name="SF040000" unicode="&#x2518;" 
 />
    <glyph glyph-name="SF080000" unicode="&#x251c;" 
 />
    <glyph glyph-name="SF090000" unicode="&#x2524;" 
 />
    <glyph glyph-name="SF060000" unicode="&#x252c;" 
 />
    <glyph glyph-name="SF070000" unicode="&#x2534;" 
 />
    <glyph glyph-name="SF050000" unicode="&#x253c;" 
 />
    <glyph glyph-name="SF430000" unicode="&#x2550;" 
 />
    <glyph glyph-name="SF240000" unicode="&#x2551;" 
 />
    <glyph glyph-name="SF510000" unicode="&#x2552;" 
 />
    <glyph glyph-name="SF520000" unicode="&#x2553;" 
 />
    <glyph glyph-name="SF390000" unicode="&#x2554;" 
 />
    <glyph glyph-name="SF220000" unicode="&#x2555;" 
 />
    <glyph glyph-name="SF210000" unicode="&#x2556;" 
 />
    <glyph glyph-name="SF250000" unicode="&#x2557;" 
 />
    <glyph glyph-name="SF500000" unicode="&#x2558;" 
 />
    <glyph glyph-name="SF490000" unicode="&#x2559;" 
 />
    <glyph glyph-name="SF380000" unicode="&#x255a;" 
 />
    <glyph glyph-name="SF280000" unicode="&#x255b;" 
 />
    <glyph glyph-name="SF270000" unicode="&#x255c;" 
 />
    <glyph glyph-name="SF260000" unicode="&#x255d;" 
 />
    <glyph glyph-name="SF360000" unicode="&#x255e;" 
 />
    <glyph glyph-name="SF370000" unicode="&#x255f;" 
 />
    <glyph glyph-name="SF420000" unicode="&#x2560;" 
 />
    <glyph glyph-name="SF190000" unicode="&#x2561;" 
 />
    <glyph glyph-name="SF200000" unicode="&#x2562;" 
 />
    <glyph glyph-name="SF230000" unicode="&#x2563;" 
 />
    <glyph glyph-name="SF470000" unicode="&#x2564;" 
 />
    <glyph glyph-name="SF480000" unicode="&#x2565;" 
 />
    <glyph glyph-name="SF410000" unicode="&#x2566;" 
 />
    <glyph glyph-name="SF450000" unicode="&#x2567;" 
 />
    <glyph glyph-name="SF460000" unicode="&#x2568;" 
 />
    <glyph glyph-name="SF400000" unicode="&#x2569;" 
 />
    <glyph glyph-name="SF540000" unicode="&#x256a;" 
 />
    <glyph glyph-name="SF530000" unicode="&#x256b;" 
 />
    <glyph glyph-name="SF440000" unicode="&#x256c;" 
 />
    </font>
</defs>
</svg>
